<svg width="24" height="23" viewBox="0 0 24 23" fill="none" xmlns="http://www.w3.org/2000/svg">
<path d="M5.14274 4.14415C7.11367 2.1733 9.73403 1.08789 12.5212 1.08789C15.3085 1.08789 17.9289 2.1733 19.8998 4.14415C21.8707 6.11502 22.9561 8.73543 22.9561 11.5227C22.9561 14.3099 21.8707 16.9303 19.8998 18.9012C17.9289 20.8721 15.3085 21.9575 12.5212 21.9575C9.73403 21.9575 7.11365 20.8721 5.14271 18.9012C3.17187 16.9303 2.08649 14.3099 2.08649 11.5227C2.08651 8.73543 3.17189 6.11502 5.14274 4.14415ZM6.00747 18.0365C7.74737 19.7764 10.0606 20.7345 12.5212 20.7345C14.8925 20.7345 16.8215 18.8056 16.8215 16.4343C16.8215 14.0631 14.8925 12.1341 12.5212 12.1341C9.4758 12.1341 6.99824 9.65641 6.99824 6.611C6.99824 5.46897 7.34652 4.40676 7.94274 3.52516C7.24363 3.92676 6.5929 4.42338 6.00758 5.00881C4.26761 6.7487 3.30946 9.06212 3.30946 11.5226C3.30942 13.9832 4.26756 16.2966 6.00747 18.0365Z" fill="#B10000"/>
</svg>
