<svg width="37" height="39" viewBox="0 0 37 39" fill="none" xmlns="http://www.w3.org/2000/svg">
<path d="M37 18.5251C37 28.7562 28.7173 37.0502 18.5 37.0502C8.28273 37.0502 0 28.7562 0 18.5251C0 8.29396 8.28273 0 18.5 0C28.7173 0 37 8.29396 37 18.5251Z" fill="black"/>
<path d="M13.3727 38.5441C12.4565 39.4187 10.9382 38.9721 10.64 37.7402L9.96883 34.9683C9.67054 33.7364 10.8159 32.6431 12.0305 33.0004L14.7632 33.8043C15.9778 34.1616 16.3507 35.7015 15.4344 36.5761L13.3727 38.5441Z" fill="black"/>
<path d="M14.1509 13.592C14.3322 13.4853 14.6042 13.384 14.9669 13.288C15.3402 13.192 15.7135 13.144 16.0869 13.144C16.6202 13.144 17.0895 13.224 17.4949 13.384C17.9109 13.5333 18.1775 13.7733 18.2949 14.104C18.4869 14.6587 18.6949 15.304 18.9189 16.04C19.1429 16.776 19.3669 17.5387 19.5909 18.328C19.8149 19.1067 20.0335 19.88 20.2469 20.648C20.4602 21.4053 20.6469 22.0773 20.8069 22.664C20.6789 22.8133 20.4869 22.9307 20.2309 23.016C19.9749 23.112 19.6709 23.16 19.3189 23.16C19.0629 23.16 18.8442 23.1387 18.6629 23.096C18.4922 23.0533 18.3482 22.9893 18.2309 22.904C18.1242 22.8187 18.0335 22.7067 17.9589 22.568C17.8949 22.4293 17.8362 22.2693 17.7829 22.088L17.4949 20.984H14.5989C14.5135 21.304 14.4282 21.6347 14.3429 21.976C14.2575 22.3173 14.1722 22.648 14.0869 22.968C13.9375 23.0213 13.7775 23.064 13.6069 23.096C13.4469 23.1387 13.2495 23.16 13.0149 23.16C12.4709 23.16 12.0655 23.0693 11.7989 22.888C11.5429 22.696 11.4149 22.4347 11.4149 22.104C11.4149 21.9547 11.4362 21.8053 11.4789 21.656C11.5215 21.5067 11.5695 21.3307 11.6229 21.128C11.6975 20.84 11.7989 20.4827 11.9269 20.056C12.0655 19.6293 12.2149 19.1707 12.3749 18.68C12.5349 18.1787 12.7055 17.6667 12.8869 17.144C13.0682 16.6213 13.2389 16.1307 13.3989 15.672C13.5589 15.2027 13.7029 14.7867 13.8309 14.424C13.9695 14.0613 14.0762 13.784 14.1509 13.592ZM16.0709 15.656C15.9215 16.104 15.7509 16.6053 15.5589 17.16C15.3775 17.704 15.2122 18.2587 15.0629 18.824H17.0469C16.8975 18.248 16.7429 17.688 16.5829 17.144C16.4335 16.5893 16.2949 16.0933 16.1669 15.656H16.0709ZM24.9181 22.936C24.8008 22.968 24.6141 23 24.3581 23.032C24.1128 23.064 23.8675 23.08 23.6221 23.08C23.3768 23.08 23.1581 23.0587 22.9661 23.016C22.7848 22.984 22.6301 22.92 22.5021 22.824C22.3741 22.728 22.2781 22.5947 22.2141 22.424C22.1501 22.2533 22.1181 22.0293 22.1181 21.752V13.304C22.2355 13.2827 22.4221 13.256 22.6781 13.224C22.9341 13.1813 23.1795 13.16 23.4141 13.16C23.6595 13.16 23.8728 13.1813 24.0541 13.224C24.2461 13.256 24.4061 13.32 24.5341 13.416C24.6621 13.512 24.7581 13.6453 24.8221 13.816C24.8861 13.9867 24.9181 14.2107 24.9181 14.488V22.936Z" fill="white"/>
</svg>
