<svg width="17" height="19" viewBox="0 0 17 19" fill="none" xmlns="http://www.w3.org/2000/svg">
<path d="M17 12.9517H3.54005C3.39741 12.9517 3.24828 12.9934 3.09268 13.0768C2.93707 13.1603 2.79119 13.2854 2.65503 13.4522C2.51888 13.6191 2.40866 13.8172 2.32437 14.0467C2.24008 14.2761 2.19794 14.5368 2.19794 14.8288C2.19794 15.1207 2.2336 15.3919 2.30492 15.6422C2.37624 15.8924 2.47025 16.1149 2.58696 16.3095C2.70366 16.5042 2.8463 16.6572 3.01487 16.7684C3.18345 16.8796 3.36499 16.9352 3.5595 16.9352H17C16.8444 16.7684 16.7082 16.5807 16.5915 16.3721C16.4878 16.1914 16.3938 15.9758 16.3095 15.7256C16.2252 15.4753 16.1831 15.1903 16.1831 14.8705C16.1831 14.509 16.2252 14.21 16.3095 13.9737C16.3938 13.7373 16.4878 13.5426 16.5915 13.3897C16.7082 13.2228 16.8444 13.0768 17 12.9517ZM17 18.6454C17 18.8818 16.8574 19 16.5721 19H2.35355C1.91266 19 1.5431 18.9027 1.24485 18.708C0.946606 18.5134 0.703471 18.2457 0.515446 17.905C0.327422 17.5644 0.194508 17.1577 0.116705 16.685C0.0389016 16.2122 0 15.7047 0 15.1625V3.06586C0 1.99524 0.265828 1.22009 0.797483 0.740395C1.32914 0.260702 2.08772 0.0208562 3.07323 0.0208562H3.73455H5.05721H6.86613C7.52746 0.0208562 8.205 0.0173802 8.89874 0.0104281C9.59249 0.00347604 10.27 0 10.9313 0H12.7597H14.1213H14.8021C15.1651 0 15.4828 0.0799488 15.7551 0.239846C16.0275 0.399744 16.2544 0.62221 16.4359 0.907245C16.6175 1.19228 16.7569 1.52945 16.8541 1.91877C16.9514 2.30809 17 2.72521 17 3.17014V11.6169C14.5233 11.6169 12.2929 11.61 10.3089 11.596H7.81922C6.98932 11.596 6.24695 11.5926 5.5921 11.5856C4.93726 11.5787 4.39588 11.5752 3.96796 11.5752H3.24828C2.97597 11.5752 2.71014 11.6621 2.4508 11.8359C2.19146 12.0097 1.95805 12.2461 1.75057 12.545C1.5431 12.8439 1.37452 13.1915 1.24485 13.5878C1.11518 13.9841 1.05034 14.3977 1.05034 14.8288C1.05034 15.3571 1.11842 15.8333 1.25458 16.2574C1.39073 16.6815 1.56903 17.0395 1.78947 17.3315C2.00992 17.6235 2.25305 17.8494 2.51888 18.0093C2.78471 18.1692 3.04729 18.2492 3.30664 18.2492H16.5915C16.6953 18.2492 16.7893 18.2805 16.8736 18.343C16.9579 18.4056 17 18.5064 17 18.6454ZM8.6167 2.07747e-08V8.07135L10.1144 5.81888L11.5927 8.07135V2.07747e-08H8.6167Z" fill="black"/>
</svg>
