<svg width="200" height="200" viewBox="0 0 200 200" fill="none" xmlns="http://www.w3.org/2000/svg">
<g clip-path="url(#clip0_4930_350)">
<path d="M100 200C72.3855 200 50 177.614 50 150C50 122.386 72.3855 100 100 100C127.614 100 150 77.6145 150 50C150 22.3855 127.614 0 100 0C44.7715 0 0 44.7715 0 100C0 155.229 44.7715 200 100 200Z" fill="#EDEDEE"/>
<path d="M100 0C127.614 0 150 22.3855 150 50C150 77.6145 127.614 100 100 100C72.3855 100 50 122.386 50 150C50 177.614 72.3855 200 100 200C155.229 200 200 155.229 200 100C200 44.7715 155.229 0 100 0Z" fill="#504B5A"/>
<path d="M117.855 150C117.855 154.736 115.974 159.278 112.625 162.627C109.276 165.976 104.734 167.857 99.9984 167.857C95.2625 167.857 90.7204 165.976 87.3716 162.627C84.0228 159.278 82.1414 154.736 82.1414 150C82.1414 145.264 84.0228 140.722 87.3716 137.373C90.7204 134.024 95.2625 132.143 99.9984 132.143C104.734 132.143 109.276 134.024 112.625 137.373C115.974 140.722 117.855 145.264 117.855 150Z" fill="#EDEDEE"/>
<path d="M117.855 50C117.855 54.736 115.974 59.278 112.625 62.6268C109.276 65.9756 104.734 67.857 99.9984 67.857C95.2625 67.857 90.7204 65.9756 87.3716 62.6268C84.0228 59.278 82.1414 54.736 82.1414 50C82.1414 45.264 84.0228 40.722 87.3716 37.3731C90.7204 34.0243 95.2625 32.1429 99.9984 32.1429C104.734 32.1429 109.276 34.0243 112.625 37.3731C115.974 40.722 117.855 45.264 117.855 50Z" fill="#504B5A"/>
</g>
<defs>
<clipPath id="clip0_4930_350">
<rect width="200" height="200" fill="white" transform="matrix(-1 0 0 1 200 0)"/>
</clipPath>
</defs>
</svg>
