<svg width="9" height="9" viewBox="0 0 9 9" fill="none" xmlns="http://www.w3.org/2000/svg">
<path d="M0.452149 0.451172C1.05464 -0.151321 2.03147 -0.151321 2.63397 0.451172L8.45215 6.26935C9.05464 6.87185 9.05464 7.84868 8.45215 8.45117C7.84966 9.05366 6.87282 9.05366 6.27033 8.45117L0.452149 2.63299C-0.150344 2.0305 -0.150344 1.05366 0.452149 0.451172Z" fill="black"/>
<path d="M8.45215 0.451172C9.05464 1.05366 9.05464 2.0305 8.45215 2.63299L2.63397 8.45117C2.03147 9.05366 1.05464 9.05366 0.452148 8.45117C-0.150344 7.84868 -0.150344 6.87185 0.452148 6.26935L6.27033 0.451171C6.87282 -0.151321 7.84966 -0.151321 8.45215 0.451172Z" fill="black"/>
</svg>
