<svg width="104" height="104" viewBox="0 0 104 104" fill="none" xmlns="http://www.w3.org/2000/svg">
<path d="M79.4205 6.06462C81.0488 7.54237 82.632 9.06118 84.1967 10.6915C84.5533 11.0629 84.4609 11.0868 84.6011 11.2459C84.8588 11.5383 85.3831 11.9371 85.4478 12.0018C85.8502 12.4026 85.5914 12.3475 85.6416 12.4055C86.2028 13.0494 86.1454 12.7599 86.7326 13.3249C87.4974 14.0606 88.4393 15.044 89.3375 15.9536C89.6527 16.2734 89.4338 16.2096 90.1255 16.8882C90.6154 17.369 92.1926 18.7695 92.7838 19.5494C92.7522 19.5891 92.6262 19.5419 92.5531 19.5422C93.6844 20.3764 94.0296 20.7347 95.3866 22.1642C95.6014 22.3903 95.8711 22.538 96.2369 22.9488C96.6024 23.3594 96.5247 23.4699 97.3064 24.2493C97.3603 24.303 97.4127 24.3501 97.4652 24.3943C97.6885 24.5846 97.9138 24.7251 98.2537 25.0947C99.512 26.3648 101.214 29.3047 101.734 30.6549C102.831 33.2751 103.333 34.7967 103.529 37.3342C103.541 37.5294 103.404 37.11 103.43 37.4667C103.456 37.8248 103.607 38.1946 103.613 38.2842C103.628 38.4875 103.631 38.7384 103.623 39.0136C103.593 40.001 103.483 41.3048 103.5 41.7113C103.554 42.964 103.615 41.7296 103.64 43.4656C103.665 45.1186 103.487 47.4009 103.453 49.0395C103.413 50.9383 103.67 51.5506 103.401 52.9805C103.413 56.8971 103.422 60.8258 103.432 64.7505C103.434 65.8908 103.342 67.0306 103.157 68.1551C103.106 68.1317 103.056 68.1061 103.006 68.0801C102.977 68.4868 102.935 68.894 102.88 69.3003C102.855 69.2313 102.829 69.1657 102.803 69.0973C102.537 70.9884 102.042 72.6755 100.937 74.6365C100.915 74.6746 100.877 74.5222 100.857 74.5528C100.599 74.9857 100.38 75.5121 100.123 75.8751C99.5176 76.77 98.1817 78.0181 98.9068 77.577C98.4351 78.1402 97.9195 78.7149 97.366 79.2706C96.0701 80.5724 94.747 81.9473 93.561 83.0781C92.8345 83.771 92.5024 83.8641 92.1559 84.1968C91.8097 84.5293 92.0851 84.4593 91.9686 84.5837C91.2675 85.3305 90.0718 86.5177 89.8314 86.5282C89.7317 86.7197 89.6242 86.9202 89.5228 87.114C89.4819 86.9 87.2974 89.1898 86.7073 89.7737C86.5996 89.8803 86.5288 89.8394 86.4485 89.9208C85.5541 90.8295 85.4212 91.1375 84.678 91.9388C84.4173 92.2201 84.7391 91.7014 84.0859 92.4396C84.029 92.504 84.1497 92.5602 83.3181 93.3907C82.3222 94.3853 80.6648 96.0818 79.2137 97.5157C78.7163 98.0078 78.2166 98.4431 77.7646 98.797C77.6158 98.9115 77.9733 98.4486 77.3265 99.0105C77.0881 99.2089 77.2705 99.2016 76.6606 99.6488C74.2822 101.376 71.3235 102.534 68.4091 103.159C68.4973 103.03 69.5085 102.717 67.9625 103.072C67.714 103.123 67.9163 103.189 67.8041 103.211C66.891 103.379 66.0839 103.385 65.0842 103.447C64.8924 103.458 64.7942 103.493 64.6472 103.522C64.5699 103.537 64.479 103.551 64.3525 103.557C63.8206 103.584 63.5853 103.475 62.9676 103.521C62.0015 103.594 61.8522 103.698 60.6543 103.495C53.8649 103.508 47.107 103.565 40.3406 103.475C39.8565 103.49 39.3817 103.505 38.9103 103.519C37.4363 103.561 35.982 103.455 34.4292 103.129C33.8224 102.994 33.7399 102.842 32.7842 102.602C32.5691 102.562 31.0259 102.155 30.9305 101.793C30.5199 101.644 30.2688 101.529 29.9249 101.379C30.1624 101.541 30.4124 101.702 30.6472 101.85C29.2102 101.167 28.0373 100.593 26.853 99.8106C25.9918 99.2204 26.6583 99.5658 26.1447 99.187C25.6393 98.7992 25.3932 98.6319 24.906 97.9882C24.6707 97.8626 24.4963 97.7225 24.3166 97.5429C24.0696 97.296 23.8089 96.977 23.3468 96.5112C23.2622 96.426 22.7255 95.9804 22.3242 95.5609C22.0356 95.2592 22.0213 95.0985 21.5412 94.641C21.4627 94.5659 20.3807 93.6655 20.0569 93.3582C19.5524 92.8799 18.8653 92.0051 18.7714 91.9089C17.4069 90.5113 16.7819 90.0717 15.9537 88.9384C15.6649 88.8309 14.7934 88.0656 14.141 87.3955C13.317 86.5492 11.8276 84.6891 11.4032 84.6565C10.5239 83.6027 10.575 83.7615 9.42705 82.617C8.73244 81.9247 7.31235 80.4391 6.18651 79.2755C5.60194 78.6729 5.13681 78.117 4.87148 77.8025C4.09334 76.8542 4.34626 77.4126 4.03273 77.0346C3.53411 76.4015 3.87925 76.6895 3.56796 76.2378C2.70366 74.9484 2.05985 73.7558 1.46118 72.3945C1.50586 72.2908 1.54949 72.1819 1.59471 72.0768C1.54266 72.0153 1.49097 71.9537 1.43949 71.8913C1.32969 71.5936 1.2129 71.2574 1.12646 70.9765C1.5825 73.4542 0.349725 68.6779 0.343007 67.2072C0.266171 66.5493 0.151449 65.6557 0.103909 64.7505C0.0616405 63.9962 0.017214 63.2413 0.000626018 62.632C-0.00820303 62.312 0.0780513 62.5319 0.0760679 62.4663C0.0514648 61.6941 -0.00744145 61.5769 0.000626207 60.5388C0.00506795 59.9897 0.113084 59.4293 0.115131 58.8945C0.12965 54.9679 0.0211187 51.1783 0.00941525 47.2775C0.00739832 46.614 0.139261 46.0417 0.142109 45.484C0.14614 44.6863 0.038179 44.1828 0.0365146 43.4338C0.0349042 42.6874 0.163931 41.6116 0.144185 41.1053C0.124826 40.5991 -0.000206242 41.4653 0.0340749 40.5387C0.0498277 40.1131 0.142939 40.8648 0.145773 40.3389C0.14797 39.9322 0.142547 39.4841 0.134843 39.0136C0.103447 37.5445 0.258696 35.8475 0.6421 34.5464C0.597675 34.6178 0.550223 34.7186 0.504357 34.8086C0.914912 32.9304 1.54316 31.3374 2.44934 29.5851C2.76089 28.97 3.33386 27.857 3.72934 27.2997C4.11946 26.7403 4.37952 26.5481 4.71959 26.1257C4.86112 25.953 4.74461 25.9704 4.84144 25.8555C5.31693 25.296 5.74935 24.8713 6.17893 24.481C6.8334 23.8892 7.45236 23.3392 8.26883 22.5088C13.1758 17.5186 18.2426 12.3799 23.2304 7.3168C23.4309 7.11322 23.4937 6.90401 23.778 6.59806C24.0474 6.30803 24.184 6.21254 24.2638 6.16839C24.3152 6.13937 24.3436 6.13137 24.3688 6.10824C24.7987 5.71963 24.5651 5.81723 25.1439 5.29377C26.4078 4.12053 28.7862 2.66686 30.3526 1.99091C33.2121 0.694202 35.9557 0.0852055 38.9103 0.029241C39.6272 0.0186643 40.3564 0.00884456 41.1072 0.000643968C41.376 -0.00258319 41.1937 0.120006 41.6599 0.121618C44.9455 0.134508 45.641 0.0171359 49.7305 0.0502053C53.3699 0.0796363 59.8831 0.14168 64.6472 0.166926C65.2561 0.170012 65.8368 0.199672 66.3789 0.247203C66.3789 0.247485 66.3789 0.24777 66.3788 0.248054C67.9508 0.139175 69.974 0.61444 71.4866 1.34265C69.2327 0.69512 66.9295 0.400545 64.6472 0.456347C57.6649 0.630507 50.7131 0.492047 43.1663 0.508837C41.7591 0.511924 40.3394 0.521922 38.9103 0.536785C33.668 0.564301 28.4035 2.84708 24.7518 6.65636C21.8741 9.62765 18.99 12.5766 16.1153 15.4216C15.4058 16.1237 15.031 16.3159 14.4555 16.9296C14.3583 17.0333 14.6888 16.8435 14.3869 17.1597C11.9107 19.7502 9.24325 22.3496 6.61814 24.9202C4.84668 26.6509 3.4256 28.7133 2.48489 30.8936C1.87938 32.3605 1.91343 32.6394 1.56569 33.9775C1.57719 33.7288 1.56793 33.5601 1.57785 33.34C0.985311 35.1631 0.67682 37.085 0.66186 39.0136C0.625882 43.4847 0.656649 47.9698 0.640291 52.4909C0.639056 52.7826 0.530552 52.8199 0.52652 53.1258C0.518069 53.7377 0.637446 54.3239 0.641513 54.8586C0.646757 55.5564 0.560424 55.6772 0.566071 56.3207C0.568962 56.6348 0.651927 56.5409 0.63785 57.2238C0.636641 57.2809 0.549596 57.3183 0.560821 57.7727C0.591874 59.0166 0.664894 61.5592 0.68668 62.589C0.704849 63.4479 0.655234 64.1961 0.616244 64.7505C0.595552 65.0468 0.584268 65.2882 0.587434 65.4623C0.633883 66.8158 0.775408 66.7761 0.935685 67.9022C1.6019 72.092 3.55427 75.9747 6.49436 78.9676C9.15789 81.6822 11.8414 84.4144 14.6378 87.21C15.0061 87.5783 16.4741 88.8348 17.1513 89.5205C17.378 89.7507 18.5445 90.973 18.7211 91.1542C19.4383 91.8891 20.0018 92.5804 20.3888 92.9942C21.1391 93.7969 22.1066 94.5648 22.5392 94.9774C23.1861 95.5943 24.2281 96.6509 24.7143 97.1452C24.7995 97.2319 24.8685 97.3005 24.9152 97.3467C25.6843 98.0866 25.3119 97.9755 25.9232 98.4488C26.1075 98.5834 26.0036 98.3372 26.63 98.8305C27.1597 99.2369 27.3257 99.4721 27.6962 99.7442C28.0673 100.019 28.8687 100.318 29.1152 100.456C30.4093 101.181 30.9729 101.555 32.5094 102.098C33.4041 102.466 36.8144 103.188 38.9103 103.072C39.7424 103.059 40.3562 103.045 40.5037 103.035C42.5847 102.887 39.6585 102.932 38.9103 102.939C38.8296 102.939 38.7742 102.939 38.7532 102.938C37.5842 102.878 37.7639 102.827 36.5912 102.83C35.6082 102.436 31.9419 102.048 31.2643 101.194C30.2687 101.091 29.5931 100.59 28.7585 100.028C27.6172 99.2253 28.4225 99.9389 27.5714 99.3744C27.2333 99.1511 26.3863 98.3427 25.9271 97.9575C25.5094 97.6144 25.2596 97.5014 24.7919 97.0676C24.7398 97.0189 24.685 96.9662 24.6269 96.9089C23.5944 95.8912 22.8028 95.0324 22.0279 94.0846C21.832 93.9651 21.6465 93.8561 21.4527 93.7387C20.8992 93.1031 20.3431 92.4654 19.7893 91.83C19.851 91.9584 19.9125 92.0873 19.9742 92.2157C19.7955 92.0466 19.6164 91.8768 19.438 91.7074C18.9098 91.0789 18.4039 90.4801 17.8613 89.8337C16.0529 88.4112 16.6888 88.713 15.816 87.7901C14.9434 86.8674 14.3121 86.4595 13.6181 85.7667C12.683 84.8333 12.24 84.4182 11.3057 83.4679C10.7642 82.9173 9.94582 81.8833 10.5353 82.8144C9.35299 81.6509 7.8567 80.2056 6.5641 78.8979C5.97723 78.3047 5.47197 77.7023 5.07888 77.1573C4.70991 76.6403 5.29128 77.2588 5.23246 77.1667C4.93353 76.7211 4.56509 76.4319 4.26552 75.9628C3.75084 75.1932 2.97393 73.5752 2.7157 72.9028C2.3008 71.9557 1.65003 70.4496 1.60186 70.2855C1.2836 69.3982 1.37256 69.1172 1.2984 68.8272C0.915726 67.1602 0.874383 66.7682 1.10054 66.2154C1.01807 65.9887 0.892245 65.3617 0.856593 64.7505C0.82356 64.2082 0.829546 63.6849 0.924967 63.4731C0.741088 63.4615 0.772085 61.9088 0.726109 60.9536C0.779347 60.7763 0.832264 60.5959 0.885905 60.4186C0.556814 58.4253 0.795865 54.4558 0.834999 51.8332C0.835808 51.7674 0.697984 51.6499 0.72904 51.2552C0.731589 51.2302 0.793522 51.2708 0.801553 51.0061C0.827378 50.1337 0.982087 46.8054 0.983442 46.4225C0.988684 45.0125 0.885818 44.7661 0.87614 43.9081C0.863236 42.7786 0.956067 42.6153 0.94279 41.5404C0.936742 41.0372 0.814558 40.5793 0.831827 39.7874C0.840785 39.3707 0.917599 39.2877 0.939992 39.0136C0.942792 38.9797 0.944825 38.9428 0.945914 38.902C0.986966 37.5996 1.02862 36.6298 1.35165 35.5135C1.10452 35.161 1.43495 34.6547 1.59986 34.109C2.23404 31.8752 3.40388 29.1945 4.61254 27.5935C5.27867 26.6819 6.01072 25.8501 6.79423 25.0963C10.3882 21.6366 13.7802 18.4319 17.3726 14.8885C18.0853 14.1855 18.1475 13.9066 18.8965 13.1712C19.2333 12.8408 19.6557 12.5753 20.2027 12.0306C20.6426 11.593 21.2313 10.9245 21.7794 10.3769C21.925 10.2313 22.0116 10.2919 22.2265 10.0781C23.2275 9.0823 24.1929 8.07958 25.1608 7.06538C25.752 6.4452 26.3854 5.85874 27.0683 5.31234C27.7263 4.78763 28.2432 4.62679 27.9899 4.50406C28.2909 4.37339 28.5824 4.24956 28.8698 4.14427C29.7875 3.42619 30.7031 3.11983 32.1445 2.53368C32.2951 2.46556 33.3691 1.92522 34.0549 1.88375C34.0798 1.7891 33.9604 1.74482 33.96 1.66501C34.6012 1.45874 35.6334 1.36486 36.0803 1.31597C36.5266 1.26166 36.8148 1.12175 36.9508 1.10681C37.4667 1.0556 37.3579 1.21529 37.3974 1.21359C38.0879 1.20168 38.5565 1.21864 38.9103 1.22385C39.8043 1.23885 39.9756 1.1545 41.025 0.998474C41.394 0.943235 43.898 1.10367 44.4045 0.930724C44.4273 1.00127 44.2877 1.06336 44.2477 1.13068C44.9998 1.14883 45.7579 1.16746 46.5129 1.18561C46.3527 1.11786 46.1604 1.05003 46.0146 0.981873C47.5559 1.04075 48.8375 0.881093 50.0986 0.886289C50.8193 0.889515 50.7314 1.0392 51.1547 1.00653C51.2375 1.00006 51.0975 0.89892 51.3431 0.890806C53.348 0.825065 54.2263 0.931922 56.234 0.952086C57.1748 0.961719 57.9982 0.777884 59.3479 0.898863C59.4712 0.91019 60.7953 1.07342 61.6132 0.839535C61.8734 0.913341 62.1029 0.952112 62.2974 1.01422C63.61 0.738966 63.5946 0.89573 64.6472 1.01274C64.9201 1.0436 65.2635 1.07582 65.7198 1.11711C66.8697 1.12101 70.6547 1.8556 71.8062 2.37273C72.5047 2.62515 72.5435 2.50508 72.6689 2.55141C73.4107 2.85145 73.3531 2.97268 74.0144 3.29318C74.6729 3.61724 75.5499 3.97967 76.1657 4.43277C76.6329 4.78221 76.1693 4.63878 76.8851 5.11192C77.0314 5.21345 76.7224 4.78226 77.3946 5.39639C77.5099 5.48599 78.4843 6.56437 78.6575 6.80454C78.0792 6.30508 76.3306 5.00106 75.6185 4.60169C72.8793 2.89965 69.0077 1.4782 64.6472 1.57237C56.7636 1.71795 47.5698 1.78447 38.9103 1.80627C33.5234 1.78938 28.5762 4.22012 25.4658 7.37039C24.1571 8.67118 22.9282 9.89008 21.8016 11.0054C20.7918 12.0055 20.0331 12.5611 19.3691 13.2074C18.705 13.8538 19.352 13.3928 18.7498 13.9797C18.1472 14.5663 17.6484 14.9338 17.0866 15.4842C13.737 18.7652 10.3635 22.0666 7.04372 25.3457C6.62369 25.7605 6.22348 26.1941 5.84482 26.6446C4.99838 27.6596 4.4976 28.5977 3.91305 29.6357C3.68887 30.042 3.56199 29.9919 3.41158 30.2886C2.02632 33.0747 1.45286 35.9996 1.46262 39.0136C1.4651 39.4946 1.46558 39.979 1.46344 40.4679C1.45656 41.9949 1.34042 43.6449 1.32952 45.1577C1.32025 46.4044 1.39966 47.697 1.4013 48.818C1.40251 49.4265 1.29751 49.7475 1.28924 49.9677C1.26181 50.7342 1.39007 50.4663 1.39007 50.8581C1.38964 51.9389 1.23479 52.4765 1.24688 53.4888C1.25172 53.8862 1.35039 53.8351 1.36578 54.4121C1.38513 55.1441 1.2941 54.8733 1.29082 55.3961C1.29042 55.4276 1.36098 55.3251 1.36382 55.6023C1.38238 57.3869 1.438 59.6151 1.43316 61.3368C1.43005 62.4811 1.4139 63.6207 1.39253 64.7505C1.34538 67.0546 1.69947 69.3369 2.43325 71.4011C2.71307 72.167 2.72765 71.9281 2.82717 72.1656C3.33489 73.2942 3.43598 73.7453 4.13376 74.8468C4.25121 75.0307 4.81883 75.6976 5.29356 76.3743C5.548 76.742 5.80858 77.1864 6.04694 77.4879C6.28606 77.7884 6.41314 77.7564 6.72767 78.0894C6.86865 78.2369 6.96371 78.3395 7.03804 78.424C7.27563 78.6924 7.30501 78.7834 7.97246 79.4353C8.32829 79.7832 9.58148 80.8796 10.4815 81.7915C11.9521 83.2816 13.7151 85.1878 15.4592 86.9341C16.0572 87.5333 16.9112 88.2173 17.8402 89.1446C18.9759 90.278 21.0469 92.3877 22.2085 93.5516C22.8025 94.1467 22.7565 94.2787 22.8235 94.3532C23.2534 94.8326 23.1693 94.5496 23.4703 94.8584C23.8835 95.2824 24.2008 95.7465 24.5761 96.1315C24.8155 96.3771 24.9273 96.3423 24.9805 96.3943C25.0626 96.4745 25.1444 96.5543 25.2257 96.6338C27.0401 98.3905 28.9423 99.692 31.267 100.694C33.6731 101.72 36.2924 102.247 38.9103 102.231C47.4814 102.186 56.0808 102.133 64.6472 102.124C67.9238 102.123 71.1875 101.27 74.0395 99.6818C75.0586 99.0961 75.1659 99.1746 76.0049 98.5577C76.8414 97.9245 77.3984 97.0629 78.2208 96.6873C78.1962 96.6232 78.1627 96.5932 78.1418 96.5332C78.1574 96.519 78.1729 96.5047 78.1884 96.4904C79.8078 94.9903 81.3037 93.367 82.8215 91.8334C83.9559 90.6869 84.9744 89.6827 86.0327 88.634C86.9712 87.7048 86.968 87.8629 87.6753 86.9533C90.6091 84.1106 93.5244 81.2049 96.4506 78.3551C97.5531 77.2827 98.5289 76.0853 99.3606 74.7985C99.8132 73.5876 100.502 72.5824 101.111 70.9216C101.183 70.7163 101.034 70.9123 101.232 70.301C101.463 69.53 101.717 69.1581 101.941 67.8062C101.993 67.5361 102.117 65.9381 102.091 64.7505C102.088 64.3523 102.093 63.998 102.111 63.7477C102.185 62.7209 102.229 61.2337 102.3 60.1671C102.244 60.3186 102.19 60.5106 102.135 60.6793C102.125 60.1473 102.116 59.6125 102.106 59.0806C102.173 59.0034 102.241 58.926 102.309 58.8517C102.244 58.5428 102.181 58.2338 102.116 57.9221C102.462 57.2501 102.349 57.939 102.262 56.4435C102.218 55.6942 102.279 55.0994 102.244 54.3301C102.231 54.0529 102.129 53.8755 102.116 53.5699C102.084 52.8208 102.225 53.2574 102.224 52.7946C102.223 52.3284 102.069 51.6592 102.137 50.8241C102.412 51.6959 102.322 49.176 102.109 49.0559C102.109 48.7559 102.117 48.5045 102.111 48.1731C102.65 48.4791 102.268 46.9082 102.194 46.2848C102.12 45.6617 102.265 45.6869 102.259 45.5411C102.244 45.121 102.184 45.4269 102.182 45.1325C102.169 43.182 102.258 41.3455 102.266 39.4208C102.267 39.1439 102.185 39.3894 102.193 39.0666C102.194 39.0489 102.194 39.0312 102.195 39.0136C102.209 38.719 102.278 38.4247 102.25 37.9866C102.242 37.8622 102.168 37.8274 102.155 37.6349C101.86 33.6027 100.435 29.8157 97.8017 26.6074C97.5606 26.3192 97.2773 26.1762 96.785 25.6516C96.6986 25.5604 96.6059 25.4595 96.5074 25.352C96.0249 24.8269 95.4413 24.1303 94.9056 23.5842C94.7334 23.4086 94.611 23.4367 94.3824 23.2041C93.6047 22.4128 92.9902 21.6757 92.1853 20.8508C90.8252 19.457 89.3375 18.0612 87.9848 16.6196C87.7282 16.3464 87.8333 16.326 87.4689 15.9262C86.8402 15.2365 86.9967 15.5761 86.851 15.4549C86.3747 15.0578 86.3592 14.799 85.9055 14.4078C85.836 14.3481 85.856 14.5124 85.7969 14.4555C84.8865 13.5702 85.0084 13.3539 83.9632 12.4901C83.2116 11.544 84.6626 12.9287 84.8598 13.0227C85.3408 13.2528 84.5482 12.1654 84.0415 11.564C83.6051 11.0461 83.5305 11.1277 83.3405 10.9378C82.3352 9.93304 80.8238 8.45126 80.0963 7.64971C79.6555 7.16435 80.5228 7.96658 80.3118 7.7043C80.103 7.44416 79.8924 7.35104 79.716 7.0463C79.5395 6.74147 79.2374 6.06171 79.4205 6.06462ZM69.5803 102.622C71.6152 101.854 76.584 99.4123 78.7397 97.0417C78.8051 96.9779 78.8691 96.9156 78.9316 96.8547C80.7762 95.0592 82.5826 93.7274 81.8626 93.7596C80.7238 94.8957 79.723 95.9184 78.6772 96.9792C77.9194 97.7465 77.078 98.4779 76.0671 99.1827C75.8282 99.3733 74.2685 100.295 73.6949 100.553C73.3772 100.709 73.3325 100.644 72.8991 100.848C72.8061 100.893 72.3176 101.223 72.118 101.298C71.4467 101.599 69.3317 102.055 69.0378 102.098C68.229 102.289 68.5643 102.341 68.214 102.433C67.0255 102.708 66.8682 102.537 65.6775 102.678C65.532 102.693 65.1583 102.79 64.6472 102.833C64.4072 102.852 64.1386 102.864 63.8517 102.858C63.4856 102.849 62.8621 102.764 62.5818 102.768C61.0546 102.79 59.3499 102.902 57.9514 102.883C56.805 102.868 57.1133 102.742 56.5071 102.725C55.9008 102.708 55.1687 102.855 54.7541 102.863C54.0906 102.876 53.2841 102.793 53.0782 102.795C49.0229 102.819 45.4165 102.916 41.5042 102.95C44.161 103.008 46.8149 103.061 49.4546 103.121C50.9532 102.99 50.2072 103.112 51.1937 103.153C51.9743 103.185 52.1632 102.964 53.1895 102.989C53.1887 102.989 53.1878 102.989 53.187 102.989C53.7161 103.001 54.8629 103.155 55.9897 103.091C56.0298 103.088 56.1301 102.973 56.9738 102.969C58.8697 102.96 61.7751 102.901 63.9086 102.926C64.3325 102.931 64.411 102.988 64.6472 103.029C64.7605 103.048 64.9104 103.064 65.151 103.063C65.6961 103.059 66.3165 102.915 67.1593 102.835C68.2139 102.728 68.7642 102.802 69.4138 102.374C69.495 102.452 69.4876 102.55 69.5803 102.622ZM102.896 58.3824C102.906 58.2334 103.204 56.2374 102.886 56.8293C102.756 59.3586 102.81 62.0815 102.751 64.7505C102.748 64.9116 102.742 65.0723 102.733 65.2324C102.785 65.0881 102.825 64.9269 102.854 64.7505C103.018 63.7675 102.926 62.3399 102.907 60.6616C102.907 60.6607 102.907 60.6599 102.907 60.6591C102.906 60.5656 102.988 60.9562 102.973 60.4251C102.966 60.1677 102.84 59.1804 102.896 58.3824Z" fill="#DBDBDB"/>
</svg>
