<svg width="149" height="49" viewBox="0 0 149 49" fill="none" xmlns="http://www.w3.org/2000/svg">
<path d="M0.18612 23.7237C0.169608 23.5978 0.192846 23.474 0.255834 23.3522L0.4448 22.9867C0.507788 22.8649 0.538492 22.7418 0.53691 22.6174L0.532164 22.2441C0.530582 22.1196 0.523171 21.994 0.50993 21.8672L0.470207 21.4867C0.456966 21.3599 0.439791 21.2317 0.41868 21.1021L0.355349 20.7133C0.334238 20.5837 0.368796 20.4631 0.459022 20.3516L0.729699 20.017C0.819925 19.9055 0.86838 19.787 0.875063 19.6615L0.895112 19.285C0.901795 19.1595 0.899591 19.0312 0.888498 18.8999L0.855221 18.5062C0.844129 18.3749 0.874923 18.2542 0.947606 18.1441L1.16565 17.8136C1.23833 17.7034 1.26317 17.5792 1.24016 17.4409L1.17112 17.0261C1.14811 16.8878 1.16963 16.7633 1.23569 16.6526L1.43385 16.3204C1.4999 16.2097 1.58334 16.1066 1.68417 16.0112L1.98666 15.725C2.08749 15.6295 2.15739 15.5229 2.19634 15.4049L2.3132 15.0512C2.35216 14.9333 2.38444 14.8118 2.41006 14.6868L2.48691 14.3117C2.51253 14.1867 2.55938 14.0714 2.62747 13.9658L2.83173 13.6491C2.89982 13.5436 2.97634 13.4431 3.06129 13.3478L3.31613 13.0618C3.40108 12.9665 3.4485 12.8501 3.45838 12.7125L3.48803 12.2999C3.49791 12.1623 3.53708 12.041 3.60553 11.936L3.81088 11.6209C3.87933 11.5158 3.96773 11.4244 4.0761 11.3465L4.4012 11.1129C4.50957 11.0351 4.56982 10.9242 4.58195 10.7802L4.61834 10.3483C4.63047 10.2044 4.68598 10.091 4.78488 10.0081L5.08156 9.7596C5.18046 9.67675 5.28629 9.60073 5.39907 9.53154L5.7374 9.32396C5.85018 9.25477 5.92956 9.15811 5.97555 9.03397L6.1135 8.66155C6.15948 8.53741 6.20735 8.41303 6.2571 8.28842L6.40635 7.91458C6.45609 7.78997 6.55402 7.71101 6.70014 7.67771L7.13848 7.57781C7.28459 7.5445 7.3829 7.46439 7.43342 7.33746L7.58497 6.95666C7.63548 6.82973 7.71534 6.73307 7.82453 6.66668L8.15211 6.46752C8.26131 6.40114 8.372 6.33765 8.48418 6.27705L8.82072 6.09526C8.9329 6.03467 9.04012 5.96906 9.14239 5.89842L9.44919 5.68653C9.55146 5.6159 9.63567 5.5211 9.70184 5.40213L9.90033 5.04523C9.9665 4.92627 10.0668 4.85382 10.2013 4.8279L10.6048 4.75012C10.7393 4.7242 10.8457 4.65785 10.9241 4.55107L11.1592 4.23075C11.2376 4.12397 11.334 4.04433 11.4485 3.99182L11.7918 3.8343C11.9063 3.78179 12.026 3.73964 12.1509 3.70783L12.5258 3.61242C12.6508 3.58062 12.7559 3.51271 12.8411 3.40871L13.0967 3.09668C13.182 2.99268 13.2839 2.91967 13.4026 2.87767L13.7587 2.75166C13.8774 2.70966 13.9945 2.66531 14.1101 2.61862L14.4568 2.47855C14.5724 2.43185 14.6778 2.36021 14.773 2.2636L15.0587 1.97379C15.1539 1.87719 15.273 1.84058 15.416 1.86395L15.8452 1.93407C15.9882 1.95745 16.1117 1.92959 16.2158 1.85049L16.528 1.6132C16.632 1.5341 16.744 1.47672 16.8639 1.44107L17.2236 1.33412C17.3435 1.29847 17.4584 1.24372 17.5682 1.16988L17.8978 0.948338C18.0077 0.874491 18.1341 0.866805 18.2771 0.925279L18.706 1.1007C18.8489 1.15918 18.9803 1.17277 19.1 1.14148L19.4592 1.04762C19.5789 1.01633 19.6977 0.977991 19.8154 0.932591L20.1687 0.796391C20.2865 0.750991 20.4038 0.696453 20.5208 0.632776L20.8716 0.441747C20.9885 0.37807 21.1095 0.338035 21.2344 0.32164L21.6094 0.272457C21.7344 0.256062 21.859 0.234581 21.983 0.208012L22.3552 0.128306C22.4793 0.101737 22.6043 0.082292 22.7303 0.0699711L23.1083 0.0330082C23.2343 0.0206873 23.3607 0.0293219 23.4875 0.0589122L23.8678 0.147683C23.9946 0.177273 24.1207 0.18696 24.246 0.176744L24.6219 0.146095C24.7472 0.135878 24.8723 0.146029 24.9973 0.176548L25.3723 0.268103C25.4973 0.298621 25.6223 0.301189 25.7473 0.275806L26.1223 0.199658C26.2473 0.174275 26.3723 0.175678 26.4973 0.203866L26.8723 0.288432C26.9973 0.31662 27.1223 0.318405 27.2473 0.293787L27.6223 0.219932C27.7473 0.195314 27.8723 0.211808 27.9973 0.269415L28.3723 0.442237C28.4973 0.499844 28.6223 0.500927 28.7473 0.445484L29.1223 0.279156C29.2473 0.223714 29.3723 0.221963 29.4973 0.273903L29.8723 0.429724C29.9973 0.481665 30.1223 0.49652 30.2473 0.474291L30.6223 0.407605C30.7473 0.385376 30.8723 0.347248 30.9973 0.29322L31.3723 0.131137C31.4973 0.0771098 31.6223 0.0869106 31.7473 0.16054L32.1223 0.381428C32.2473 0.455057 32.3723 0.475469 32.4973 0.442663L32.8723 0.344247C32.9973 0.311442 33.1223 0.280144 33.2473 0.250354L33.6223 0.160985C33.7473 0.131195 33.8723 0.146665 33.9973 0.207397L34.3723 0.389591C34.4973 0.450322 34.6223 0.488524 34.7473 0.504198L35.1223 0.551219C35.2473 0.566893 35.3723 0.570997 35.4973 0.563533L35.8723 0.541139C35.9973 0.533675 36.1223 0.525966 36.2473 0.518013L36.6223 0.494154C36.7473 0.4862 36.8723 0.473529 36.9973 0.456139L37.3723 0.403969C37.4973 0.386579 37.6223 0.358171 37.7473 0.318743L38.1223 0.200459C38.2473 0.161032 38.3723 0.16349 38.4973 0.207835L38.8723 0.340871C38.9973 0.385216 39.1223 0.386816 39.2473 0.345671L39.6223 0.222236C39.7473 0.18109 39.8723 0.160679 39.9973 0.161002L40.3723 0.161969C40.4973 0.162292 40.6223 0.175254 40.7473 0.200855L41.1223 0.27766C41.2473 0.303261 41.3723 0.302796 41.4973 0.276264L41.8723 0.196667C41.9973 0.170135 42.1223 0.161959 42.2473 0.172137L42.6223 0.202673C42.7473 0.212852 42.8723 0.201372 42.9973 0.168234L43.3723 0.0688205C43.4973 0.0356825 43.6223 0.0599896 43.7473 0.141742L44.1223 0.386999C44.2473 0.468751 44.3723 0.508923 44.4973 0.507515L44.8723 0.503293C44.9973 0.501885 45.1223 0.499793 45.2473 0.497016L45.6223 0.488687C45.7473 0.48591 45.8723 0.462335 45.9973 0.417963L46.3723 0.284845C46.4973 0.240473 46.6223 0.231803 46.7473 0.258836L47.1223 0.339935C47.2473 0.366968 47.3723 0.361527 47.4973 0.323611L47.8723 0.209863C47.9973 0.171947 48.1223 0.188976 48.2473 0.260948L48.6223 0.476867C48.7473 0.54884 48.8723 0.558757 48.9973 0.506618L49.3723 0.350201C49.4973 0.298062 49.6223 0.297122 49.7473 0.34738L50.1223 0.498154C50.2473 0.548412 50.3723 0.568791 50.4973 0.559291L50.8723 0.530791C50.9973 0.521291 51.1223 0.473743 51.2473 0.388145L51.6223 0.131353C51.7473 0.0457557 51.8723 0.00868083 51.9973 0.0201284L52.3723 0.0544711C52.4973 0.0659186 52.6223 0.0853543 52.7473 0.112778L53.1223 0.19505C53.2473 0.222474 53.3723 0.263132 53.4973 0.317024L53.8723 0.478701C53.9973 0.532593 54.1223 0.52036 54.2473 0.442001L54.6223 0.206923C54.7473 0.128564 54.8723 0.0813439 54.9973 0.065264L55.3723 0.0170241C55.4973 0.000944199 55.6223 0.0335706 55.7473 0.114903L56.1223 0.358901C56.2473 0.440234 56.3723 0.444398 56.4973 0.371392L56.8723 0.152375C56.9973 0.0793696 57.1223 0.0612852 57.2473 0.0981219L57.6223 0.208632C57.7473 0.245469 57.8723 0.252602 57.9973 0.230033L58.3723 0.162326C58.4973 0.139756 58.6223 0.145057 58.7473 0.178229L59.1223 0.277743C59.2473 0.310914 59.3723 0.340306 59.4973 0.365918L59.8723 0.442754C59.9973 0.468366 60.1223 0.456934 60.2473 0.408457L60.6223 0.263026C60.7473 0.214549 60.8723 0.213493 60.9973 0.25986L61.3723 0.39896C61.4973 0.445327 61.6223 0.468336 61.7473 0.467989L62.1223 0.466947C62.2473 0.4666 62.3723 0.470267 62.4973 0.477949L62.8723 0.500995C62.9973 0.508677 63.1223 0.498891 63.2473 0.471638L63.6223 0.389879C63.7473 0.362626 63.8723 0.33423 63.9973 0.304692L64.3723 0.216075C64.4973 0.186537 64.6223 0.170756 64.7473 0.168733L65.1223 0.162663C65.2473 0.16064 65.3723 0.185192 65.4973 0.236319L65.8723 0.3897C65.9973 0.440828 66.1223 0.447808 66.2473 0.410643L66.6223 0.299147C66.7473 0.261982 66.8723 0.261789 66.9973 0.298568L67.3723 0.408907C67.4973 0.445686 67.6223 0.439532 67.7473 0.390445L68.1223 0.243183C68.2473 0.194095 68.3723 0.2025 68.4973 0.268398L68.8723 0.46609C68.9973 0.531987 69.1223 0.536228 69.2473 0.478813L69.6223 0.306566C69.7473 0.249151 69.8723 0.214054 69.9973 0.201277L70.3723 0.162944C70.4973 0.150167 70.6223 0.152019 70.7473 0.168502L71.1223 0.217951C71.2473 0.234434 71.3723 0.266393 71.4973 0.313829L71.8723 0.456138C71.9973 0.503575 72.1223 0.486298 72.2473 0.404307L72.6223 0.158334C72.7473 0.0763433 72.8723 0.0318079 72.9973 0.0247279L73.3723 0.00348777C73.4973 -0.00359226 73.6223 0.000106847 73.7473 0.0145851L74.1223 0.0580199C74.2473 0.0724981 74.3723 0.0872549 74.4973 0.10229L74.8723 0.147396C74.9973 0.162432 75.1223 0.162371 75.2473 0.147216L75.6223 0.101749C75.7473 0.0865929 75.8723 0.0729489 75.9973 0.0608168L76.3723 0.0244204C76.4973 0.0122883 76.6223 0.0429638 76.7473 0.116447L77.1223 0.336897C77.2473 0.41038 77.3723 0.457995 77.4973 0.479741L77.8723 0.54498C77.9973 0.566727 78.1223 0.532413 78.2473 0.442039L78.6223 0.170917C78.7473 0.0805427 78.8723 0.0568638 78.9973 0.0998802L79.3723 0.22893C79.4973 0.271946 79.6223 0.29339 79.7473 0.293261L80.1223 0.292876C80.2473 0.292748 80.3723 0.316539 80.4973 0.364251L80.8723 0.507387C80.9973 0.555099 81.1223 0.555803 81.2473 0.509498L81.6223 0.370586C81.7473 0.324281 81.8723 0.294474 81.9973 0.281164L82.3723 0.241234C82.4973 0.227924 82.6223 0.221856 82.7473 0.22303L83.1223 0.226551C83.2473 0.227725 83.3723 0.218776 83.4973 0.199705L83.8723 0.14249C83.9973 0.123419 84.1223 0.13275 84.2473 0.170483L84.6223 0.283683C84.7473 0.321416 84.8723 0.320101 84.9973 0.279738L85.3723 0.158649C85.4973 0.118286 85.6223 0.138882 85.7473 0.220437L86.1223 0.465102C86.2473 0.546657 86.3723 0.539046 86.4973 0.442268L86.8723 0.151935C86.9973 0.0551574 87.1223 0.0383825 87.2473 0.10161L87.6223 0.291294C87.7473 0.354522 87.8723 0.386225 87.9973 0.386405L88.3723 0.386942C88.4973 0.387121 88.6223 0.378725 88.7473 0.361754L89.1223 0.310842C89.2473 0.293871 89.3723 0.309844 89.4973 0.358761L89.8723 0.505512C89.9973 0.55443 90.1223 0.53388 90.2473 0.443863L90.6223 0.173813C90.7473 0.0837966 90.8723 0.0621782 90.9973 0.108958L91.3723 0.249298C91.4973 0.296078 91.6223 0.308137 91.7473 0.285475L92.1223 0.217491C92.2473 0.194829 92.3723 0.213192 92.4973 0.272578L92.8723 0.450737C92.9973 0.510123 93.1223 0.537222 93.2473 0.532033L93.6223 0.516467C93.7473 0.511278 93.8723 0.493674 93.9973 0.463654L94.3723 0.373595C94.4973 0.343576 94.6223 0.334395 94.7473 0.346053L95.1223 0.381027C95.2473 0.392685 95.3723 0.379695 95.4973 0.342058L95.8723 0.229146C95.9973 0.191509 96.1223 0.200235 96.2473 0.255323L96.6223 0.420589C96.7473 0.475677 96.8723 0.49984 96.9973 0.493078L97.3723 0.47279C97.4973 0.466027 97.6223 0.456696 97.7473 0.444797L98.1223 0.409098C98.2473 0.397199 98.3723 0.39051 98.4973 0.389031L98.8723 0.384595C98.9973 0.383116 99.1223 0.363723 99.2473 0.326416L99.6223 0.214496C99.7473 0.17719 99.8723 0.193375 99.9973 0.263053L100.372 0.472085C100.497 0.541763 100.622 0.528962 100.747 0.433683L101.122 0.147846C101.247 0.0525673 101.372 0.0271549 101.497 0.071609L101.872 0.204971C101.997 0.249425 102.122 0.260179 102.247 0.237232L102.622 0.168391C102.747 0.145444 102.872 0.170743 102.997 0.244287L103.372 0.464922C103.497 0.538467 103.622 0.532766 103.747 0.447817L104.122 0.192972C104.247 0.108024 104.372 0.087477 104.497 0.131332L104.872 0.262895C104.997 0.306749 105.122 0.323508 105.247 0.313171L105.622 0.282158C105.747 0.271821 105.872 0.268728 105.997 0.27288L106.372 0.285336C106.497 0.289488 106.622 0.310216 106.747 0.347522L107.122 0.459437C107.247 0.496743 107.372 0.484292 107.497 0.422085L107.872 0.235464C107.997 0.173257 108.122 0.140854 108.247 0.138257L108.622 0.130464C108.747 0.127867 108.872 0.162259 108.997 0.233641L109.372 0.447785C109.497 0.519167 109.622 0.508098 109.747 0.414578L110.122 0.134019C110.247 0.0404993 110.372 0.00649826 110.497 0.0320158L110.872 0.108569C110.997 0.134086 111.122 0.135965 111.247 0.114205L111.622 0.0489243C111.747 0.0271642 111.872 0.0148905 111.997 0.0121032L112.372 0.00374147C112.497 0.000954221 112.622 0.00799671 112.747 0.024869L113.122 0.0754857C113.247 0.0923579 113.372 0.0943452 113.497 0.0814475L113.872 0.0427545C113.997 0.0298569 114.122 0.0416593 114.247 0.0781617L114.622 0.187669C114.747 0.224171 114.872 0.224899 114.997 0.189853L115.372 0.0847128C115.497 0.0496662 115.622 0.0681812 115.747 0.140258L116.122 0.356488C116.247 0.428565 116.372 0.459996 116.497 0.450783L116.872 0.423143C116.997 0.413929 117.122 0.413427 117.247 0.421635L117.622 0.44626C117.747 0.454468 117.872 0.461197 117.997 0.466446L118.372 0.482194C118.497 0.487444 118.622 0.453069 118.747 0.379069L119.122 0.157071C119.247 0.0830715 119.372 0.0435229 119.497 0.0384251L119.872 0.0231317C119.997 0.0180339 120.122 0.0344421 120.247 0.0723562L120.622 0.186099C120.747 0.224013 120.872 0.247049 120.997 0.255207L121.372 0.279681C121.497 0.287839 121.622 0.303661 121.747 0.327148L122.122 0.397606C122.247 0.421093 122.372 0.431167 122.497 0.42783L122.872 0.417818C122.997 0.41448 123.122 0.414377 123.247 0.417507L123.622 0.426899C123.747 0.43003 123.872 0.435793 123.997 0.444188L124.372 0.469375C124.496 0.47777 124.621 0.471911 124.746 0.451796L125.121 0.391451C125.246 0.371336 125.373 0.338789 125.501 0.29381L125.887 0.158872C126.015 0.113893 126.142 0.0965766 126.268 0.106923L126.646 0.137962C126.771 0.148308 126.893 0.187322 127.012 0.255005L127.367 0.458052C127.486 0.525734 127.609 0.553633 127.738 0.541747L128.123 0.506092C128.252 0.494207 128.379 0.49265 128.505 0.501421L128.885 0.527733C129.011 0.536504 129.131 0.573063 129.246 0.63741L129.59 0.83045C129.705 0.894797 129.824 0.935972 129.949 0.953974L130.322 1.00798C130.447 1.02598 130.562 1.07727 130.667 1.16185L130.983 1.41557C131.089 1.50015 131.209 1.53559 131.344 1.52188L131.75 1.48077C131.885 1.46707 132.002 1.50816 132.1 1.60405L132.394 1.89172C132.492 1.98761 132.605 2.04229 132.733 2.05575L133.117 2.09615C133.245 2.10961 133.361 2.15412 133.464 2.22967L133.772 2.45633C133.875 2.53188 133.982 2.59802 134.092 2.65473L134.421 2.82489C134.531 2.88161 134.654 2.91343 134.79 2.92036L135.198 2.94114C135.334 2.94807 135.463 2.97117 135.585 3.01044L135.95 3.12827C136.072 3.16755 136.191 3.21251 136.308 3.26315L136.658 3.41508C136.774 3.46572 136.875 3.54242 136.959 3.64517L137.212 3.95343C137.296 4.05619 137.4 4.12838 137.523 4.17003L137.894 4.29495C138.017 4.3366 138.122 4.40552 138.208 4.50172L138.466 4.79032C138.551 4.88652 138.651 4.96425 138.764 5.02349L139.103 5.20123C139.216 5.26048 139.317 5.33563 139.405 5.42668L139.67 5.69984C139.758 5.7909 139.858 5.86784 139.97 5.93068L140.308 6.1192C140.42 6.18204 140.503 6.27675 140.557 6.40332L140.719 6.78306C140.773 6.90963 140.846 7.01522 140.938 7.09982L141.213 7.35361C141.305 7.43821 141.409 7.51222 141.524 7.57563L141.87 7.76586C141.985 7.82927 142.083 7.90954 142.164 8.00666L142.405 8.29802C142.485 8.39514 142.535 8.51688 142.555 8.66323L142.615 9.10228C142.634 9.24863 142.691 9.36394 142.784 9.44821L143.063 9.70101C143.156 9.78528 143.269 9.85625 143.401 9.91392L143.799 10.0869C143.932 10.1446 143.995 10.2515 143.989 10.4078L143.971 10.8765C143.964 11.0328 144.015 11.1499 144.124 11.2278L144.448 11.4616C144.556 11.5396 144.655 11.6248 144.744 11.7173L145.012 11.9949C145.101 12.0874 145.173 12.1905 145.228 12.3041L145.392 12.6448C145.446 12.7584 145.502 12.8709 145.56 12.9824L145.733 13.3169C145.791 13.4284 145.836 13.5458 145.868 13.6691L145.966 14.039C145.999 14.1623 146.029 14.2857 146.058 14.4091L146.144 14.7795C146.173 14.903 146.237 15.0121 146.335 15.107L146.629 15.3917C146.727 15.4866 146.789 15.5959 146.817 15.7197L146.899 16.0909C146.926 16.2146 146.979 16.3298 147.057 16.4363L147.292 16.756C147.37 16.8625 147.395 16.9855 147.367 17.1249L147.283 17.543C147.255 17.6824 147.281 17.8063 147.36 17.9149L147.596 18.2406C147.675 18.3492 147.709 18.4692 147.696 18.6006L147.66 18.9949C147.648 19.1264 147.675 19.2492 147.743 19.3633L147.947 19.7056C148.015 19.8197 148.054 19.9399 148.062 20.0662L148.089 20.445C148.098 20.5712 148.121 20.6953 148.158 20.8172L148.268 21.1828C148.305 21.3047 148.327 21.4287 148.336 21.5546L148.362 21.9326C148.37 22.0586 148.377 22.1846 148.383 22.3106L148.401 22.6887C148.406 22.8147 148.399 22.9409 148.38 23.0673L148.32 23.4464C148.3 23.5728 148.283 23.6987 148.268 23.8242L148.223 24.2007C148.208 24.3262 148.208 24.4517 148.222 24.5771L148.265 24.9534C148.279 25.0788 148.262 25.2027 148.215 25.325L148.073 25.692C148.026 25.8143 148.01 25.9384 148.026 26.0643L148.072 26.4419C148.087 26.5677 148.069 26.6904 148.018 26.8097L147.866 27.1678C147.815 27.2871 147.806 27.4119 147.837 27.542L147.933 27.9324C147.965 28.0625 147.956 28.1866 147.907 28.3045L147.758 28.6582C147.708 28.7761 147.693 28.9009 147.712 29.0326L147.77 29.4278C147.789 29.5595 147.757 29.6795 147.675 29.7879L147.428 30.1129C147.346 30.2213 147.289 30.3354 147.256 30.4551L147.159 30.8145C147.126 30.9342 147.084 31.0507 147.03 31.1637L146.871 31.5028C146.818 31.6158 146.798 31.7403 146.811 31.8762L146.85 32.284C146.863 32.4199 146.849 32.5473 146.809 32.6662L146.689 33.0229C146.648 33.1417 146.586 33.2509 146.5 33.3504L146.244 33.6487C146.158 33.7482 146.115 33.8665 146.115 34.0038L146.115 34.4155C146.115 34.5527 146.082 34.675 146.015 34.7824L145.816 35.1046C145.749 35.212 145.675 35.3147 145.593 35.4126L145.346 35.7062C145.264 35.8041 145.182 35.9011 145.1 35.9974L144.853 36.2861C144.771 36.3824 144.726 36.5013 144.718 36.643L144.693 37.068C144.684 37.2096 144.637 37.3273 144.551 37.4211L144.293 37.7024C144.207 37.7961 144.116 37.8861 144.022 37.9723L143.738 38.2309C143.643 38.3171 143.571 38.4199 143.521 38.5391L143.373 38.897C143.324 39.0163 143.237 39.1061 143.113 39.1665L142.741 39.3475C142.618 39.4079 142.522 39.4911 142.456 39.5973L142.256 39.9158C142.189 40.022 142.11 40.1175 142.019 40.2023L141.745 40.4568C141.654 40.5416 141.581 40.6443 141.526 40.7648L141.362 41.1264C141.307 41.247 141.241 41.3577 141.164 41.4587L140.933 41.7615C140.856 41.8624 140.749 41.9312 140.614 41.9678L140.207 42.0776C140.071 42.1142 139.974 42.1948 139.916 42.3192L139.743 42.6927C139.685 42.8172 139.602 42.9119 139.493 42.9767L139.167 43.1711C139.058 43.2358 138.948 43.2985 138.837 43.3591L138.505 43.5407C138.394 43.6012 138.279 43.6538 138.158 43.6983L137.797 43.8317C137.676 43.8762 137.59 43.9718 137.537 44.1186L137.378 44.5588C137.325 44.7056 137.233 44.7917 137.101 44.8171L136.705 44.8935C136.573 44.919 136.45 44.9578 136.336 45.01L135.994 45.1667C135.88 45.2189 135.765 45.268 135.648 45.3141L135.299 45.4521C135.183 45.4981 135.08 45.5716 134.99 45.6724L134.721 45.9749C134.631 46.0757 134.528 46.1496 134.412 46.1966L134.061 46.3376C133.945 46.3846 133.829 46.4344 133.715 46.4869L133.372 46.6444C133.258 46.6969 133.136 46.7296 133.007 46.7425L132.62 46.7813C132.491 46.7942 132.37 46.8287 132.257 46.8846L131.919 47.0525C131.806 47.1084 131.692 47.1626 131.577 47.2149L131.232 47.3719C131.116 47.4242 130.998 47.4661 130.876 47.4975L130.511 47.5919C130.389 47.6234 130.265 47.6424 130.137 47.6489L129.756 47.6686C129.629 47.6751 129.504 47.6931 129.383 47.7227L129.018 47.8113C128.897 47.8409 128.777 47.8826 128.659 47.9365L128.305 48.098C128.187 48.1519 128.067 48.1962 127.945 48.231L127.577 48.3354C127.455 48.3702 127.328 48.3714 127.198 48.3391L126.807 48.2419C126.676 48.2095 126.549 48.1984 126.424 48.2085L126.051 48.2388C125.926 48.2489 125.801 48.239 125.674 48.209L125.296 48.1191C125.17 48.0891 125.045 48.0738 124.92 48.0732L124.548 48.0714C124.424 48.0708 124.299 48.0675 124.174 48.0616L123.8 48.044C123.675 48.0381 123.55 48.0549 123.425 48.0944L123.05 48.2129C122.925 48.2524 122.8 48.2684 122.675 48.2609L122.3 48.2383C122.175 48.2308 122.05 48.2121 121.925 48.1822L121.55 48.0926C121.425 48.0628 121.3 48.0704 121.175 48.1156L120.8 48.251C120.675 48.2961 120.55 48.3232 120.425 48.3323L120.05 48.3597C119.925 48.3688 119.8 48.3795 119.675 48.3917L119.3 48.4282C119.175 48.4404 119.05 48.445 118.925 48.4421L118.55 48.4332C118.425 48.4303 118.3 48.401 118.175 48.3453L117.8 48.1782C117.675 48.1225 117.55 48.1201 117.425 48.1708L117.05 48.3231C116.925 48.3738 116.8 48.3805 116.675 48.3431L116.3 48.2309C116.175 48.1935 116.05 48.1828 115.925 48.1987L115.55 48.2463C115.425 48.2622 115.3 48.2524 115.175 48.217L114.8 48.1108C114.675 48.0754 114.55 48.0972 114.425 48.1762L114.05 48.4132C113.925 48.4922 113.8 48.5261 113.675 48.5147L113.3 48.4807C113.175 48.4693 113.05 48.4297 112.925 48.3617L112.55 48.1577C112.425 48.0897 112.3 48.0634 112.175 48.0788L111.8 48.1251C111.675 48.1405 111.55 48.1675 111.425 48.2061L111.05 48.3219C110.925 48.3605 110.8 48.3809 110.675 48.3831L110.3 48.3896C110.175 48.3918 110.05 48.4079 109.925 48.4378L109.55 48.5278C109.425 48.5577 109.3 48.5285 109.175 48.44L108.8 48.1747C108.675 48.0863 108.55 48.0656 108.425 48.1126L108.05 48.2536C107.925 48.3006 107.8 48.3315 107.675 48.3462L107.3 48.3906C107.175 48.4054 107.05 48.4161 106.925 48.4226L106.55 48.4422C106.425 48.4487 106.3 48.4343 106.175 48.3992L105.8 48.2937C105.675 48.2585 105.55 48.2601 105.425 48.2982L105.05 48.4127C104.925 48.4509 104.8 48.4507 104.675 48.4122L104.3 48.2967C104.175 48.2582 104.05 48.2508 103.925 48.2745L103.55 48.3456C103.425 48.3693 103.3 48.3846 103.175 48.3917L102.8 48.4127C102.675 48.4197 102.55 48.3899 102.425 48.3231L102.05 48.1228C101.925 48.0561 101.8 48.0223 101.675 48.0214L101.3 48.019C101.175 48.0181 101.05 48.0585 100.925 48.14L100.55 48.3847C100.425 48.4662 100.3 48.4875 100.175 48.4487L99.7998 48.3321C99.6748 48.2932 99.5498 48.2646 99.4248 48.2463L99.0498 48.1915C98.9248 48.1732 98.7998 48.1873 98.6748 48.2338L98.2998 48.3733C98.1748 48.4198 98.0498 48.4302 97.9248 48.4046L97.5498 48.3276C97.4248 48.302 97.2998 48.2781 97.1748 48.2561L96.7998 48.1899C96.6748 48.1678 96.5498 48.1868 96.4248 48.2467L96.0498 48.4264C95.9248 48.4863 95.7998 48.5133 95.6748 48.5075L95.2998 48.4901C95.1748 48.4843 95.0498 48.4611 94.9248 48.4205L94.5498 48.2988C94.4248 48.2582 94.2998 48.2242 94.1748 48.1968L93.7998 48.1146C93.6748 48.0873 93.5498 48.1099 93.4248 48.1825L93.0498 48.4005C92.9248 48.4731 92.7998 48.5032 92.6748 48.4907L92.2998 48.4531C92.1748 48.4406 92.0498 48.4157 91.9248 48.3784L91.5498 48.2665C91.4248 48.2292 91.2998 48.2331 91.1748 48.2783L90.7998 48.4138C90.6748 48.459 90.5498 48.4648 90.4248 48.4311L90.0498 48.3303C89.9248 48.2966 89.7998 48.292 89.6748 48.3162L89.2998 48.389C89.1748 48.4133 89.0498 48.4309 88.9248 48.4418L88.5498 48.4744C88.4248 48.4852 88.2998 48.4506 88.1748 48.3705L87.7998 48.1301C87.6748 48.05 87.5498 48.0574 87.4248 48.1522L87.0498 48.4368C86.9248 48.5316 86.7998 48.5456 86.6748 48.4787L86.2998 48.2781C86.1748 48.2112 86.0498 48.1686 85.9248 48.1504L85.5498 48.0955C85.4248 48.0773 85.2998 48.0653 85.1748 48.0595L84.7998 48.0424C84.6748 48.0367 84.5498 48.0322 84.4248 48.029L84.0498 48.0193C83.9248 48.0161 83.7998 48.0624 83.6748 48.1582L83.2998 48.4455C83.1748 48.5413 83.0498 48.5848 82.9248 48.576L82.5498 48.5497C82.4248 48.5409 82.2998 48.5236 82.1748 48.4977L81.7998 48.4202C81.6748 48.3943 81.5498 48.374 81.4248 48.3593L81.0498 48.3151C80.9248 48.3004 80.7998 48.3006 80.6748 48.3157L80.2998 48.361C80.1748 48.3761 80.0498 48.3649 79.9248 48.3274L79.5498 48.2148C79.4248 48.1772 79.2998 48.1875 79.1748 48.2455L78.7998 48.4195C78.6748 48.4775 78.5498 48.4872 78.4248 48.4484L78.0498 48.332C77.9248 48.2932 77.7998 48.2775 77.6748 48.2847L77.2998 48.3063C77.1748 48.3136 77.0498 48.3254 76.9248 48.3419L76.5498 48.3912C76.4248 48.4077 76.2998 48.3982 76.1748 48.3626L75.7998 48.256C75.6748 48.2205 75.5498 48.2216 75.4248 48.2595L75.0498 48.373C74.9248 48.4109 74.7998 48.4207 74.6748 48.4026L74.2998 48.348C74.1748 48.3299 74.0498 48.3383 73.9248 48.3735L73.5498 48.4789C73.4248 48.5141 73.2998 48.5022 73.1748 48.4434L72.7998 48.267C72.6748 48.2082 72.5498 48.1821 72.4248 48.1886L72.0498 48.2083C71.9248 48.2149 71.7998 48.2017 71.6748 48.1688L71.2998 48.07C71.1748 48.0371 71.0498 48.0648 70.9248 48.1531L70.5498 48.418C70.4248 48.5063 70.2998 48.5536 70.1748 48.5599L69.7998 48.5789C69.6748 48.5852 69.5498 48.5637 69.4248 48.5146L69.0498 48.3671C68.9248 48.3179 68.7998 48.3009 68.6748 48.316L68.2998 48.3612C68.1748 48.3763 68.0498 48.394 67.9248 48.4143L67.5498 48.4752C67.4248 48.4955 67.2998 48.4658 67.1748 48.3859L66.7998 48.1463C66.6748 48.0665 66.5498 48.0356 66.4248 48.0538L66.0498 48.1084C65.9248 48.1266 65.7998 48.1327 65.6748 48.1268L65.2998 48.1091C65.1748 48.1032 65.0498 48.0966 64.9248 48.0891L64.5498 48.0668C64.4248 48.0593 64.2998 48.0995 64.1748 48.1875L63.7998 48.4512C63.6748 48.5391 63.5498 48.5434 63.4248 48.4641L63.0498 48.2262C62.9248 48.1469 62.7998 48.1047 62.6748 48.0997L62.2998 48.0847C62.1748 48.0797 62.0498 48.0778 61.9248 48.0791L61.5498 48.083C61.4248 48.0843 61.2998 48.0946 61.1748 48.1138L60.7998 48.1717C60.6748 48.1909 60.5498 48.2296 60.4248 48.2877L60.0498 48.4618C59.9248 48.5199 59.7998 48.508 59.6748 48.4262L59.2998 48.1808C59.1748 48.099 59.0498 48.058 58.9248 48.0578L58.5498 48.0572C58.4248 48.0569 58.2998 48.0877 58.1748 48.1493L57.7998 48.3343C57.6748 48.396 57.5498 48.4076 57.4248 48.3691L57.0498 48.2536C56.9248 48.2151 56.7998 48.1903 56.6748 48.1792L56.2998 48.1457C56.1748 48.1346 56.0498 48.1477 55.9248 48.1852L55.5498 48.2976C55.4248 48.335 55.2998 48.3281 55.1748 48.2768L54.7998 48.1227C54.6748 48.0714 54.5498 48.0804 54.4248 48.1497L54.0498 48.3576C53.9248 48.4269 53.7998 48.4535 53.6748 48.4374L53.2998 48.3889C53.1748 48.3727 53.0498 48.3463 52.9248 48.3096L52.5498 48.1995C52.4248 48.1628 52.2998 48.1715 52.1748 48.2254L51.7998 48.3873C51.6748 48.4413 51.5498 48.4312 51.4248 48.3571L51.0498 48.1347C50.9248 48.0606 50.7998 48.0363 50.6748 48.0617L50.2998 48.138C50.1748 48.1634 50.0498 48.1648 49.9248 48.1422L49.5498 48.0745C49.4248 48.052 49.2998 48.0758 49.1748 48.1462L48.7998 48.3572C48.6748 48.4276 48.5498 48.4371 48.4248 48.3857L48.0498 48.2316C47.9248 48.1803 47.7998 48.1855 47.6748 48.2472L47.2998 48.4323C47.1748 48.494 47.0498 48.5244 46.9248 48.5234L46.5498 48.5204C46.4248 48.5194 46.2998 48.4903 46.1748 48.4331L45.7998 48.2614C45.6748 48.2042 45.5498 48.1842 45.4248 48.2015L45.0498 48.2532C44.9248 48.2705 44.7998 48.2564 44.6748 48.2111L44.2998 48.0751C44.1748 48.0298 44.0498 48.0461 43.9248 48.1241L43.5498 48.3582C43.4248 48.4362 43.2998 48.4424 43.1748 48.3767L42.7998 48.1796C42.6748 48.1139 42.5498 48.0886 42.4248 48.1036L42.0498 48.1488C41.9248 48.1639 41.7998 48.1892 41.6748 48.2247L41.2998 48.3313C41.1748 48.3668 41.0498 48.372 40.9248 48.3468L40.5498 48.2713C40.4248 48.2461 40.2998 48.2311 40.1748 48.2264L39.7998 48.2121C39.6748 48.2073 39.5498 48.2237 39.4248 48.2613L39.0498 48.3741C38.9248 48.4118 38.7998 48.4027 38.6748 48.3471L38.2998 48.1803C38.1748 48.1247 38.0498 48.1327 37.9248 48.2044L37.5498 48.4194C37.4248 48.491 37.2998 48.5183 37.1748 48.5011L36.7998 48.4496C36.6748 48.4325 36.5498 48.4039 36.4248 48.3641L36.0498 48.2445C35.9248 48.2046 35.7998 48.2179 35.6748 48.2842L35.2998 48.4833C35.1748 48.5497 35.0498 48.5823 34.9248 48.5811L34.5498 48.5774C34.4248 48.5761 34.2998 48.5546 34.1748 48.5128L33.7998 48.3874C33.6748 48.3456 33.5498 48.3357 33.4248 48.3579L33.0498 48.4244C32.9248 48.4465 32.7998 48.4383 32.6748 48.3997L32.2998 48.284C32.1748 48.2454 32.0498 48.2328 31.9248 48.2463L31.5498 48.2868C31.4248 48.3003 31.2998 48.302 31.1748 48.292L30.7998 48.2619C30.6748 48.2519 30.5498 48.2374 30.4248 48.2184L30.0498 48.1614C29.9248 48.1424 29.7998 48.1504 29.6748 48.1855L29.2998 48.2906C29.1748 48.3256 29.0498 48.3164 28.9248 48.2629L28.5498 48.1025C28.4248 48.0491 28.2998 48.0451 28.1748 48.0907L27.7998 48.2274C27.6748 48.2729 27.5498 48.3029 27.4248 48.3173L27.0498 48.3605C26.9248 48.3749 26.7998 48.3918 26.6748 48.4113L26.2998 48.4697C26.1748 48.4892 26.0498 48.4955 25.9248 48.4887L25.5498 48.4682C25.4248 48.4614 25.2998 48.4418 25.1748 48.4094L24.7998 48.3123C24.6748 48.2799 24.5499 48.2489 24.4252 48.2194L24.0511 48.1308C23.9263 48.1012 23.8007 48.1142 23.6742 48.1696L23.2946 48.3357C23.168 48.3911 23.0418 48.4167 22.9157 48.4126L22.5376 48.4003C22.4115 48.3962 22.2865 48.3825 22.1625 48.3593L21.7905 48.2896C21.6666 48.2664 21.5417 48.2508 21.416 48.2428L21.0388 48.2188C20.9131 48.2108 20.7861 48.2086 20.6577 48.2124L20.2726 48.2237C20.1442 48.2274 20.02 48.2078 19.8998 48.1648L19.5393 48.0358C19.4191 47.9928 19.3039 47.9306 19.1938 47.8492L18.8633 47.6049C18.7532 47.5234 18.6398 47.4604 18.5233 47.4157L18.1738 47.2818C18.0573 47.2371 17.937 47.2064 17.8128 47.1895L17.4403 47.1391C17.3161 47.1223 17.1982 47.0848 17.0866 47.0267L16.7518 46.8525C16.6402 46.7944 16.5137 46.7777 16.3723 46.8023L15.9482 46.8764C15.8068 46.901 15.6849 46.8725 15.5825 46.7907L15.2753 46.5454C15.1729 46.4636 15.0609 46.406 14.9391 46.3726L14.574 46.2723C14.4523 46.2388 14.3257 46.2141 14.1941 46.1982L13.7995 46.1505C13.6679 46.1346 13.5532 46.0839 13.4553 45.9982L13.1618 45.7411C13.0639 45.6555 12.959 45.5841 12.8471 45.527L12.5113 45.3557C12.3993 45.2986 12.285 45.2452 12.1682 45.1954L11.8178 45.0462C11.701 44.9964 11.6003 44.921 11.5158 44.8198L11.262 44.5164C11.1774 44.4153 11.0682 44.3514 10.9345 44.3246L10.5332 44.2443C10.3995 44.2176 10.2874 44.159 10.1971 44.0685L9.92609 43.7972C9.83576 43.7067 9.75388 43.6066 9.68045 43.4967L9.46016 43.167C9.38673 43.0571 9.28948 42.9772 9.16841 42.9272L8.80519 42.7774C8.68412 42.7274 8.57335 42.6642 8.47289 42.5878L8.17148 42.3584C8.07101 42.282 8.00028 42.1742 7.95929 42.035L7.83632 41.6175C7.79533 41.4783 7.72136 41.3744 7.61442 41.3058L7.2936 41.1001C7.18666 41.0315 7.09032 40.952 7.00457 40.8615L6.74733 40.5902C6.66158 40.4998 6.5765 40.4087 6.49211 40.3169L6.23891 40.0416C6.15452 39.9499 6.06003 39.8661 5.95545 39.7903L5.64171 39.563C5.53713 39.4872 5.43921 39.405 5.34795 39.3165L5.07418 39.051C4.98293 38.9624 4.91723 38.855 4.87708 38.7288L4.75665 38.35C4.7165 38.2237 4.66074 38.1093 4.58937 38.0068L4.37524 37.6992C4.30387 37.5967 4.22932 37.496 4.1516 37.3972L3.91846 37.1009C3.84074 37.0021 3.77477 36.8961 3.72054 36.7827L3.55785 36.4427C3.50363 36.3294 3.4404 36.2212 3.36819 36.1182L3.15154 35.809C3.07933 35.7059 3.02171 35.5951 2.97868 35.4766L2.8496 35.121C2.80657 35.0025 2.75754 34.8872 2.70249 34.7751L2.53736 34.439C2.48231 34.3269 2.41779 34.2187 2.3438 34.1143L2.12183 33.8011C2.04784 33.6967 2.00692 33.5787 1.99908 33.4472L1.97556 33.0526C1.96773 32.921 1.93654 32.7989 1.88201 32.6863L1.7184 32.3482C1.66387 32.2356 1.61416 32.1209 1.56926 32.0041L1.43458 31.6539C1.38968 31.5371 1.35222 31.4182 1.32219 31.297L1.23211 30.9333C1.20208 30.8121 1.14848 30.6968 1.0713 30.5872L0.839772 30.2586C0.762595 30.1491 0.722039 30.0302 0.718103 29.902L0.706293 29.5173C0.702357 29.389 0.685511 29.2639 0.655754 29.1419L0.566486 28.7759C0.536729 28.6539 0.503574 28.5321 0.467018 28.4103L0.357352 28.0452C0.320797 27.9235 0.335153 27.7954 0.400421 27.661L0.596226 27.2576C0.661494 27.1232 0.683672 26.9949 0.662761 26.8727L0.600027 26.506C0.579116 26.3838 0.565509 26.2608 0.559208 26.137L0.540305 25.7654C0.534003 25.6415 0.485829 25.5188 0.39578 25.3973L0.125635 25.0327C0.0355867 24.9111 -0.00605533 24.8037 0.000708923 24.7103L0.0210017 24.43C0.0277659 24.3366 0.0502544 24.2899 0.0884671 24.2899H0.203105C0.241318 24.2899 0.252168 24.227 0.235656 24.1012L0.18612 23.7237Z" fill="#B10000" fill-opacity="0.23"/>
<path d="M7.26042 24.2899C7.26042 14.3488 15.3193 6.28992 25.2604 6.28992H123.26C133.202 6.28992 141.26 14.3488 141.26 24.2899C141.26 34.231 133.202 42.2899 123.26 42.2899H25.2604C15.3193 42.2899 7.26042 34.231 7.26042 24.2899Z" fill="#B10000"/>
</svg>
