<svg width="108" height="108" viewBox="0 0 108 108" fill="none" xmlns="http://www.w3.org/2000/svg">
<path d="M82.3598 6.06453C84.0526 7.60679 85.7002 9.19002 87.3312 10.8867C87.703 11.2732 87.609 11.2957 87.7555 11.461C88.0246 11.7648 88.5681 12.1828 88.6355 12.2502C89.0546 12.6676 88.7893 12.606 88.8417 12.6663C89.4279 13.3352 89.3633 13.0386 89.9745 13.6274C90.7704 14.3943 91.7523 15.4177 92.6881 16.3649C93.0164 16.6978 92.7917 16.6281 93.5118 17.3352C94.0219 17.8361 95.6609 19.2985 96.2806 20.1069C96.2491 20.1467 96.1196 20.0959 96.0449 20.0948C97.217 20.9698 97.5768 21.3426 98.9918 22.83C99.2156 23.0653 99.4941 23.2216 99.8759 23.6486C100.258 24.0753 100.181 24.1865 100.995 24.9983C101.212 25.2145 101.402 25.3296 101.672 25.5599C101.765 25.6392 101.866 25.7323 101.978 25.8478C103.33 27.1286 105.179 30.1478 105.742 31.5459C106.931 34.2553 107.462 35.8401 107.679 38.4812C107.692 38.6845 107.553 38.2479 107.581 38.6192C107.609 38.9921 107.762 39.3773 107.768 39.4706C107.783 39.6822 107.787 39.9436 107.779 40.2302C107.749 41.2586 107.639 42.6167 107.656 43.04C107.71 44.3447 107.77 43.059 107.796 44.8671C107.821 46.5888 107.643 48.9659 107.609 50.6725C107.568 52.6502 107.826 53.288 107.557 54.7773C107.57 59.0736 107.579 63.3839 107.589 67.6885C107.591 68.6523 107.526 69.6156 107.394 70.5697C107.343 70.547 107.292 70.5219 107.242 70.4965C107.22 70.9205 107.185 71.3454 107.137 71.7694C107.111 71.6985 107.083 71.6312 107.057 71.561C106.819 73.5351 106.333 75.3024 105.209 77.3595C105.187 77.3995 105.149 77.2433 105.129 77.2754C104.866 77.7299 104.641 78.2788 104.376 78.6597C103.757 79.5989 102.378 80.9106 103.122 80.4405C102.634 81.0298 102.099 81.6299 101.522 82.2087C100.172 83.5644 98.793 84.9954 97.5589 86.1743C96.8029 86.8966 96.462 86.9986 96.1014 87.3454C95.7411 87.692 96.0237 87.6148 95.9021 87.7442C95.1709 88.521 93.9258 89.7577 93.6801 89.7735C93.5744 89.971 93.4605 90.1779 93.3529 90.3778C93.3156 90.1603 91.0383 92.543 90.4238 93.1512C90.3116 93.2623 90.2402 93.222 90.1565 93.3068C89.2247 94.2529 89.0827 94.57 88.3074 95.4035C88.0354 95.696 88.3747 95.1599 87.6926 95.9269C87.6332 95.9938 87.7552 96.0487 86.889 96.9137C85.7436 98.0577 83.7568 100.092 82.1488 101.667C81.8059 102.003 81.4686 102.306 81.1529 102.569C81.0016 102.693 81.3638 102.205 80.7061 102.808C80.4633 103.021 80.6506 103.005 80.0278 103.487C77.5982 105.35 74.5337 106.615 71.5022 107.285C71.5938 107.154 72.6457 106.825 71.0376 107.204C70.7791 107.259 70.9896 107.323 70.8729 107.345C69.9228 107.525 69.0823 107.538 68.0411 107.601C67.8413 107.613 67.7391 107.648 67.5859 107.677C67.5055 107.693 67.4108 107.706 67.279 107.713C66.725 107.74 66.4799 107.63 65.8366 107.677C64.8303 107.75 64.6749 107.853 63.4272 107.65C56.3558 107.663 49.3172 107.72 42.2697 107.631C41.5417 107.651 40.8337 107.673 40.1276 107.693C38.8205 107.728 37.5102 107.642 36.1229 107.384C35.4878 107.258 35.397 107.108 34.3972 106.876C34.1722 106.839 32.5596 106.439 32.45 106.073C32.0204 105.924 31.7572 105.808 31.397 105.656C31.6475 105.82 31.9109 105.982 32.1585 106.131C30.6504 105.444 29.4239 104.856 28.1859 104.048C27.2859 103.438 27.9794 103.797 27.4425 103.405C26.9148 103.004 26.6582 102.829 26.1456 102.164C25.9023 102.032 25.7211 101.885 25.5339 101.698C25.2767 101.441 25.004 101.11 24.5226 100.625C24.4344 100.536 23.8774 100.07 23.459 99.6336C23.1581 99.3197 23.1402 99.1553 22.6407 98.6784C22.5589 98.6001 21.4358 97.6585 21.0989 97.3381C20.574 96.8394 19.8544 95.9321 19.7566 95.832C18.3347 94.3771 17.6876 93.9154 16.8187 92.7413C16.5216 92.6256 15.6162 91.8262 14.9363 91.1287C14.0775 90.2477 12.5187 88.3181 12.0847 88.2759C11.1653 87.182 11.2207 87.3452 10.0252 86.1531C9.20441 85.3349 7.40906 83.4549 6.19339 82.2068C5.78601 81.789 5.46123 81.4228 5.25165 81.1885C4.41445 80.2237 4.69884 80.7933 4.36253 80.4081C3.82734 79.7615 4.19069 80.055 3.85488 79.5927C2.9223 78.272 2.22764 77.0424 1.58368 75.6338C1.62545 75.5263 1.66606 75.4135 1.70841 75.3046C1.65424 75.241 1.60049 75.1772 1.54695 75.1126C1.428 74.8042 1.30166 74.4558 1.20777 74.1644C1.731 76.7339 0.364129 71.7813 0.355626 70.2467C0.271955 69.5619 0.151437 68.6314 0.104035 67.6885C0.0617637 66.9029 0.0173412 66.1167 0.000750759 65.482C-0.00807938 65.1488 0.0781788 65.3778 0.0761912 65.3095C0.0515884 64.5052 -0.00731507 64.3832 0.000749824 63.3019C0.00519081 62.7301 0.113207 62.1463 0.115255 61.5894C0.129774 57.4996 0.0212406 53.5527 0.00954078 49.4898C0.00752416 48.7988 0.139385 48.2026 0.142233 47.6218C0.146265 46.7909 0.0383011 46.2666 0.0366389 45.4865C0.0350271 44.709 0.164054 43.5885 0.144309 43.0613C0.12495 42.534 -8.28438e-05 43.4362 0.0341978 42.4711C0.0499532 42.0278 0.143065 42.8108 0.145896 42.263C0.149052 41.6549 0.136498 40.9579 0.124036 40.2302C0.0967693 38.8739 0.233445 37.405 0.542688 36.2364C0.499312 36.312 0.453423 36.4184 0.409012 36.5134C0.789219 34.5475 1.41036 32.8741 2.33005 31.0367C2.64581 30.3918 3.23384 29.228 3.64161 28.6448C4.04368 28.0591 4.3104 27.8553 4.66255 27.4136C4.80908 27.2331 4.69045 27.2538 4.7908 27.1336C5.28353 26.5488 5.73251 26.105 6.17906 25.6976C6.85941 25.0799 7.50264 24.5056 8.35331 23.6411C13.4658 18.4453 18.7445 13.0947 23.9411 7.82287C24.15 7.61091 24.2185 7.39604 24.515 7.07784C24.9717 6.5876 25.0596 6.62914 25.1251 6.56825C25.3664 6.34303 25.3984 6.27975 25.4806 6.16727C25.5469 6.07827 25.6431 5.95782 25.8998 5.7151C27.1778 4.45259 29.6178 2.87607 31.2377 2.14495C34.192 0.742713 37.0505 0.08564 40.1276 0.0286755C40.8743 0.0180982 41.6338 0.00827761 42.4158 7.73608e-05C42.6958 -0.00314895 42.5059 0.119439 42.9915 0.121053C46.4135 0.133942 47.1379 0.0165693 51.3973 0.0496394C55.3568 0.0803828 62.5825 0.146711 67.5859 0.169511C67.9778 0.171235 68.3558 0.183874 68.7178 0.20494C68.7178 0.205225 68.7178 0.20551 68.7177 0.205795C70.3507 0.0535355 72.4707 0.495371 74.0622 1.21829C71.9239 0.641406 69.744 0.38306 67.5859 0.439308C60.0937 0.63836 52.6557 0.490977 44.5604 0.508271C43.0947 0.511359 41.6161 0.521356 40.1276 0.536219C34.8848 0.561969 29.6188 2.83644 25.962 6.6486C22.8121 9.89966 19.6546 13.1304 16.5099 16.2437C15.7711 16.9751 15.3845 17.1792 14.7844 17.8175C14.6829 17.9255 15.0243 17.7248 14.7095 18.0538C12.1281 20.7495 9.35127 23.4584 6.61826 26.1368C4.77387 27.94 3.30947 30.1034 2.3636 32.3884C1.7567 33.9258 1.79362 34.2147 1.45993 35.6153C1.46834 35.3567 1.45721 35.1817 1.46489 34.9529C0.951657 36.6572 0.683388 38.4404 0.667473 40.2302C0.623032 45.1032 0.657536 49.9909 0.640418 54.9198C0.639183 55.2235 0.530676 55.2624 0.526645 55.5811C0.518191 56.2184 0.637573 56.8289 0.641638 57.3858C0.646882 58.1126 0.56055 58.2384 0.566196 58.9086C0.569085 59.2357 0.652053 59.1379 0.637976 59.8492C0.636765 59.9087 0.549721 59.9477 0.560946 60.4209C0.591999 61.7165 0.665019 64.3647 0.686803 65.4372C0.704974 66.3319 0.655358 67.1111 0.616369 67.6885C0.595679 67.9971 0.584942 68.2486 0.588626 68.4299C0.640959 69.8395 0.783131 69.7983 0.956921 70.97C1.643 75.1112 3.59161 78.9448 6.49869 81.9015C9.42425 84.881 12.367 87.878 15.4395 90.9497C15.8232 91.3333 17.3477 92.6464 18.0532 93.3604C18.2894 93.6 19.5055 94.8719 19.6896 95.0606C20.4369 95.8256 21.0265 96.543 21.4301 96.9734C22.2126 97.8084 23.2161 98.6123 23.6663 99.0425C24.3395 99.6856 25.4251 100.786 25.9316 101.3C26.0205 101.391 26.0923 101.462 26.1411 101.51C26.9432 102.28 26.5601 102.159 27.1973 102.651C27.3894 102.791 27.2765 102.54 27.9315 103.05C28.4856 103.471 28.6625 103.711 29.0512 103.991C29.4402 104.273 30.2747 104.582 30.5333 104.722C31.8905 105.461 32.4854 105.838 34.0959 106.372C34.9485 106.686 37.941 107.327 40.1276 107.237C41.3158 107.221 42.2495 107.203 42.4396 107.19C44.8407 107.026 40.8419 107.1 40.6165 107.094C40.4216 107.089 40.2624 107.083 40.1276 107.077C39.42 107.038 39.3875 107.02 38.362 107.042C37.3248 106.68 33.503 106.335 32.7771 105.47C31.7431 105.368 31.0295 104.861 30.1531 104.288C28.9547 103.466 29.804 104.195 28.9127 103.615C28.5585 103.385 27.6684 102.552 27.1895 102.152C26.754 101.795 26.4958 101.675 26.0092 101.223C25.955 101.172 25.898 101.117 25.8375 101.057C24.7624 99.9972 23.9366 99.1041 23.1259 98.1205C22.9234 97.9945 22.7319 97.8794 22.5315 97.7555C21.9533 97.0951 21.3725 96.4326 20.794 95.7726C20.8596 95.905 20.9251 96.0378 20.9908 96.1702C20.8048 95.9939 20.6185 95.8167 20.4328 95.6401C19.8806 94.9876 19.3518 94.3659 18.7845 93.6948C16.909 92.2052 17.5643 92.5265 16.6543 91.5662C15.7444 90.6063 15.0916 90.1769 14.3687 89.4552C13.3948 88.483 12.9339 88.0501 11.9605 87.0607C11.3964 86.4874 10.5395 85.4149 11.1606 86.3776C9.78736 85.0254 8.00806 83.3072 6.56824 81.8319C6.13182 81.3849 5.74841 80.9397 5.43073 80.526C5.0309 79.9993 5.65141 80.6283 5.5873 80.5345C5.26169 80.0805 4.87402 79.7862 4.54936 79.3061C3.99174 78.5193 3.14402 76.8529 2.86266 76.1576C2.41109 75.1796 1.71936 73.6176 1.66811 73.4469C1.32867 72.5258 1.41392 72.2335 1.33429 71.932C0.923885 70.1987 0.883644 69.7894 1.1053 69.2143C1.02127 68.9781 0.892217 68.3251 0.856716 67.6885C0.823684 67.1237 0.82967 66.5786 0.925093 66.3581C0.741212 66.346 0.772209 64.7288 0.726234 63.734C0.779473 63.5493 0.83239 63.3614 0.886028 63.1767C0.556937 61.1006 0.79599 56.9663 0.835125 54.2348C0.835932 54.1662 0.69811 54.0438 0.729165 53.6327C0.731713 53.6067 0.793646 53.649 0.801676 53.3732C0.827502 52.4647 0.982212 48.9981 0.983568 48.5993C0.98881 47.1307 0.885945 46.8741 0.876263 45.9804C0.863359 44.804 0.956192 44.634 0.942917 43.5144C0.936867 42.9903 0.814681 42.5134 0.831951 41.6886C0.84203 41.2003 0.937987 41.1519 0.945723 40.7652C0.949452 40.5808 0.951594 40.4029 0.952808 40.2302C0.964069 39.1292 1.00668 38.2326 1.26975 37.2189C1.01568 36.8603 1.33764 36.3231 1.49586 35.7509C2.09941 33.4084 3.28569 30.5992 4.53319 28.923C5.21967 27.9685 5.97899 27.0986 6.79435 26.3129C10.5348 22.7067 14.0638 19.365 17.8044 15.6734C18.5465 14.9411 18.6158 14.6551 19.3956 13.8889C19.7462 13.5446 20.183 13.2648 20.7527 12.6974C21.2107 12.2416 21.8256 11.547 22.3964 10.9767C22.5481 10.825 22.6352 10.8851 22.859 10.6624C24.0566 9.47076 25.2064 8.2708 26.3676 7.05424C26.839 6.55977 27.3389 6.08651 27.87 5.63829C28.5409 5.07403 29.0721 4.88924 28.8109 4.77595C29.1196 4.63021 29.4189 4.49237 29.7143 4.37398C30.6566 3.61043 31.6009 3.26616 33.0934 2.6347C33.2491 2.56136 34.3625 1.98984 35.075 1.93485C35.1009 1.83944 34.9769 1.79753 34.9764 1.71752C35.6421 1.49673 36.716 1.38654 37.181 1.33269C37.6452 1.27296 37.9455 1.13058 38.087 1.11448C38.6243 1.05916 38.5108 1.22002 38.552 1.21797C39.271 1.20163 39.7592 1.21814 40.1276 1.22329C41.0587 1.23829 41.2372 1.15394 42.3302 0.997909C42.7145 0.942669 45.3225 1.1031 45.85 0.930158C45.8738 1.00071 45.7284 1.06279 45.6867 1.13011C46.4701 1.14826 47.2596 1.1669 48.046 1.18505C47.8792 1.11729 47.6789 1.04947 47.527 0.981306C49.1323 1.04018 50.4672 0.880528 51.7806 0.885723C52.5313 0.88895 52.4397 1.03863 52.8806 1.00597C52.9669 0.999493 52.821 0.898355 53.0768 0.89024C55.165 0.824499 56.0798 0.931355 58.1709 0.95152C59.1508 0.961152 60.0084 0.777317 61.4142 0.898297C61.5425 0.909624 62.9216 1.07286 63.7735 0.838969C64.0445 0.912776 64.2836 0.951546 64.4861 1.01366C66.0811 0.692519 65.7935 0.959425 67.5859 1.06519C67.73 1.07379 67.8874 1.08287 68.0601 1.09308C69.2583 1.05474 73.2188 1.72773 74.426 2.25147C75.1575 2.50289 75.1936 2.38289 75.3249 2.42924C76.1016 2.73129 76.0456 2.8535 76.7381 3.17936C77.4277 3.50919 78.3417 3.88312 78.9866 4.35003C79.4761 4.71043 78.9964 4.55836 79.7431 5.04881C79.8958 5.1543 79.5685 4.71112 80.2727 5.34592C80.3936 5.43794 81.4154 6.55437 81.5962 6.80397C80.9975 6.2802 79.1735 4.9249 78.4287 4.51486C75.6967 2.84207 71.8788 1.46848 67.5859 1.56002C59.2324 1.71381 49.3868 1.78333 40.1276 1.80571C34.768 1.78946 29.824 4.19239 26.6845 7.37112C25.1479 8.89937 23.711 10.3253 22.406 11.6178C21.3545 12.6596 20.5685 13.2425 19.8773 13.916C19.186 14.5896 19.856 14.1056 19.2291 14.7172C18.6018 15.3284 18.085 15.714 17.5001 16.2875C14.0128 19.7062 10.5006 23.1462 7.04384 26.5624C6.6065 26.9944 6.1906 27.447 5.79809 27.9178C4.92092 28.9785 4.40322 29.9578 3.80669 31.0457C3.57815 31.4716 3.4506 31.4237 3.29788 31.7348C1.98592 34.459 1.43851 37.3149 1.45842 40.2302C1.4643 40.9454 1.46664 41.6665 1.46356 42.3973C1.45669 43.9878 1.34054 45.7064 1.32965 47.282C1.32037 48.5805 1.39978 49.9267 1.40142 51.0943C1.40263 51.7281 1.29763 52.0624 1.28936 52.2917C1.26194 53.09 1.39019 52.811 1.39019 53.2191C1.38976 54.3448 1.23491 54.9048 1.247 55.9591C1.25184 56.373 1.35052 56.3198 1.3659 56.9208C1.38526 57.6831 1.29422 57.4011 1.29095 57.9457C1.29054 57.9784 1.3611 57.8716 1.36395 58.1604C1.3825 60.0191 1.43813 62.3399 1.43329 64.1331C1.43017 65.3249 1.41402 66.5118 1.39265 67.6885C1.34527 70.0884 1.73553 72.4651 2.53169 74.6034C2.83521 75.3966 2.84335 75.1488 2.95073 75.3946C3.49844 76.5613 3.61689 77.0272 4.36754 78.1589C4.49387 78.3478 5.09669 79.0314 5.61108 79.7218C5.88674 80.097 6.17389 80.55 6.43183 80.8559C6.65923 81.1246 6.78684 81.1293 7.04318 81.357C7.07944 81.3891 7.11824 81.4255 7.16021 81.4674C7.79657 82.1032 7.55427 81.9756 8.47433 82.8751C8.84477 83.2376 10.1467 84.3828 11.0844 85.3324C12.6165 86.8839 14.4557 88.8663 16.2723 90.6852C16.8952 91.3092 17.781 92.0251 18.7487 92.991C19.9314 94.1715 22.0893 96.368 23.2992 97.5802C23.9179 98.2 23.8736 98.3338 23.9436 98.4112C24.3924 98.9095 24.3006 98.6188 24.6143 98.9403C25.0449 99.3818 25.3784 99.862 25.7695 100.263C26.019 100.519 26.1324 100.485 26.1877 100.54C26.2733 100.623 26.3584 100.706 26.443 100.789C28.3321 102.619 30.3274 103.961 32.7644 104.967C35.0928 105.918 37.6108 106.404 40.1276 106.39C49.2707 106.344 58.4463 106.288 67.5859 106.279C70.9988 106.279 74.3973 105.352 77.3316 103.634C78.3794 103 78.4898 103.075 79.3476 102.411C80.0417 101.857 80.55 101.147 81.1591 100.678C81.3027 100.566 81.4535 100.468 81.6147 100.388C81.5913 100.322 81.5575 100.293 81.5381 100.231C83.2415 98.6531 84.8175 96.9473 86.4145 95.3344C87.5963 94.1406 88.6568 93.0943 89.7589 92.0019C90.7361 91.0338 90.7296 91.1953 91.4705 90.2521C94.5242 87.2894 97.5604 84.2629 100.607 81.2932C101.754 80.1756 102.764 78.9219 103.615 77.5723C104.082 76.3113 104.781 75.2518 105.381 73.5099C105.452 73.2946 105.305 73.5028 105.497 72.8621C105.721 72.0541 105.973 71.6597 106.17 70.2462C106.204 70.0095 106.288 68.801 106.256 67.6885C106.242 67.0201 106.24 66.3836 106.267 65.9916C106.341 64.9223 106.385 63.3733 106.456 62.2623C106.4 62.4202 106.346 62.6201 106.291 62.7958C106.281 62.2418 106.272 61.6848 106.262 61.1307C106.329 61.0503 106.397 60.9697 106.465 60.8923C106.4 60.5706 106.337 60.2487 106.272 59.9241C106.618 59.2242 106.505 59.9417 106.418 58.3841C106.374 57.6037 106.435 56.9842 106.4 56.1829C106.387 55.8942 106.285 55.7095 106.272 55.3912C106.24 54.6109 106.381 55.0657 106.38 54.5837C106.379 54.0981 106.225 53.4011 106.293 52.5313C106.568 53.4393 106.478 50.8148 106.265 50.6897C106.264 50.3772 106.273 50.1153 106.267 49.7702C106.806 50.0889 106.424 48.4528 106.35 47.8034C106.276 47.1545 106.421 47.1807 106.415 47.0288C106.4 46.5913 106.34 46.9099 106.337 46.6033C106.325 44.5718 106.414 42.659 106.422 40.6543C106.423 40.3659 106.341 40.6217 106.349 40.2855C106.35 40.267 106.35 40.2486 106.351 40.2302C106.365 39.9234 106.433 39.6169 106.404 39.1606C106.395 39.0311 106.321 38.9949 106.306 38.7945C105.987 34.5956 104.432 30.6602 101.595 27.3991C101.36 27.134 101.095 26.9923 100.657 26.5751C100.608 26.5292 100.558 26.4798 100.505 26.4266C99.9588 25.8738 99.2063 24.9582 98.5303 24.2696C98.3508 24.0867 98.2264 24.1128 97.9883 23.8707C97.178 23.0468 96.5355 22.2816 95.6967 21.4229C94.2793 19.9719 92.7318 18.5162 91.3211 17.0165C91.0534 16.7324 91.1603 16.7137 90.7801 16.2981C90.124 15.5809 90.2908 15.9309 90.1395 15.8041C89.6451 15.3889 89.6239 15.1244 89.1526 14.7157C89.0805 14.6533 89.1043 14.8214 89.0428 14.7621C88.0951 13.8395 88.2151 13.6213 87.1302 12.7178C86.3434 11.7365 87.8532 13.1801 88.0564 13.2801C88.5523 13.525 87.7206 12.3985 87.1909 11.7741C86.7347 11.2363 86.6603 11.3181 86.4624 11.1203C85.4153 10.0738 83.8417 8.52988 83.0825 7.69657C82.6224 7.19198 83.5244 8.02888 83.3036 7.75678C83.085 7.48689 82.8682 7.38747 82.6817 7.07273C82.4952 6.75791 82.1727 6.05776 82.3598 6.06453ZM72.7196 106.726C74.6886 105.947 79.3692 103.675 81.6732 101.192C81.9088 100.961 82.1321 100.743 82.3396 100.541C84.2597 98.6696 86.1313 97.2727 85.3956 97.3205C84.0444 98.6687 82.8791 99.8629 81.6188 101.137C80.9702 101.793 80.2519 102.427 79.4154 103.042C79.1723 103.248 77.5714 104.246 76.979 104.527C76.6514 104.696 76.6052 104.632 76.1576 104.852C76.0617 104.901 75.5571 105.249 75.3504 105.331C74.6569 105.657 72.4616 106.165 72.1557 106.211C71.315 106.417 71.6633 106.463 71.2991 106.56C70.0627 106.853 69.8987 106.683 68.659 106.831C68.5074 106.846 68.1183 106.946 67.5859 106.988C67.336 107.008 67.0562 107.02 66.7574 107.013C66.3761 107.004 65.7267 106.92 65.4348 106.924C63.8442 106.945 62.0686 107.057 60.6121 107.039C59.418 107.023 59.7391 106.897 59.1077 106.88C58.4762 106.864 57.7137 107.01 57.2819 107.018C56.5909 107.032 55.7509 106.949 55.5364 106.95C51.3127 106.974 47.5565 107.071 43.4816 107.106C46.2489 107.163 49.0129 107.216 51.7623 107.276C53.3231 107.145 52.5462 107.268 53.5736 107.308C54.3867 107.341 54.5834 107.119 55.6524 107.144C55.6515 107.144 55.6506 107.144 55.6497 107.144C56.2008 107.157 57.3953 107.31 58.5689 107.246C58.6106 107.243 58.7151 107.129 59.5938 107.125C61.5685 107.116 64.5946 107.057 66.8166 107.081C67.2581 107.086 67.34 107.143 67.5859 107.184C67.704 107.203 67.86 107.219 68.1107 107.217C68.6783 107.212 69.3245 107.066 70.2019 106.977C71.2992 106.858 71.8715 106.923 72.5465 106.481C72.6308 106.557 72.6232 106.655 72.7196 106.726ZM107.052 60.4036C107.062 60.2484 107.36 58.1695 107.042 58.7859C106.904 61.58 106.973 64.6008 106.895 67.5408C107.209 66.537 107.086 64.8387 107.063 62.7774C107.063 62.7765 107.063 62.7756 107.063 62.7747C107.062 62.6774 107.144 63.0842 107.129 62.531C107.122 62.263 106.996 61.2346 107.052 60.4036Z" fill="#ECECEC"/>
</svg>
